%TF.GenerationSoftware,KiCad,Pcbnew,10.0.2*%
%TF.CreationDate,2026-05-29T23:53:22-06:00*%
%TF.ProjectId,HERMES,4845524d-4553-42e6-9b69-6361645f7063,rev?*%
%TF.SameCoordinates,Original*%
%TF.FileFunction,Legend,Top*%
%TF.FilePolarity,Positive*%
%FSLAX46Y46*%
G04 Gerber Fmt 4.6, Leading zero omitted, Abs format (unit mm)*
G04 Created by KiCad (PCBNEW 10.0.2) date 2026-05-29 23:53:22*
%MOMM*%
%LPD*%
G01*
G04 APERTURE LIST*
%ADD10C,0.125000*%
%ADD11C,0.000000*%
%ADD12C,0.150000*%
%ADD13C,0.141419*%
%ADD14C,0.200000*%
%ADD15C,0.127000*%
%ADD16C,0.120000*%
G04 APERTURE END LIST*
D10*
G36*
X106882170Y-72575000D02*
G01*
X106838451Y-72575000D01*
X106794731Y-72575000D01*
X106751012Y-72575000D01*
X106751012Y-72531280D01*
X106751012Y-72487561D01*
X106794731Y-72487561D01*
X106794731Y-72443841D01*
X106794731Y-72400122D01*
X106794731Y-72356402D01*
X106794731Y-72312683D01*
X106794731Y-72268963D01*
X106794731Y-72225244D01*
X106794731Y-72181524D01*
X106794731Y-72137805D01*
X106751012Y-72137805D01*
X106751012Y-72094085D01*
X106751012Y-72050366D01*
X106794731Y-72050366D01*
X106838451Y-72050366D01*
X106882170Y-72050366D01*
X106925890Y-72050366D01*
X106925890Y-72094085D01*
X106925890Y-72137805D01*
X106882170Y-72137805D01*
X106882170Y-72181524D01*
X106882170Y-72225244D01*
X106882170Y-72268963D01*
X106882170Y-72312683D01*
X106882170Y-72356402D01*
X106882170Y-72400122D01*
X106882170Y-72443841D01*
X106882170Y-72487561D01*
X106925890Y-72487561D01*
X106925890Y-72531280D01*
X106925890Y-72575000D01*
X106882170Y-72575000D01*
G37*
G36*
X107013329Y-72225244D02*
G01*
X106969609Y-72225244D01*
X106969609Y-72181524D01*
X106969609Y-72137805D01*
X106969609Y-72094085D01*
X106969609Y-72050366D01*
X107013329Y-72050366D01*
X107057048Y-72050366D01*
X107057048Y-72094085D01*
X107057048Y-72137805D01*
X107057048Y-72181524D01*
X107057048Y-72225244D01*
X107013329Y-72225244D01*
G37*
G36*
X107668877Y-72575000D02*
G01*
X107625157Y-72575000D01*
X107625157Y-72531280D01*
X107625157Y-72487561D01*
X107625157Y-72443841D01*
X107625157Y-72400122D01*
X107625157Y-72356402D01*
X107625157Y-72312683D01*
X107625157Y-72268963D01*
X107668877Y-72268963D01*
X107712596Y-72268963D01*
X107712596Y-72312683D01*
X107712596Y-72356402D01*
X107712596Y-72400122D01*
X107712596Y-72443841D01*
X107712596Y-72487561D01*
X107712596Y-72531280D01*
X107712596Y-72575000D01*
X107668877Y-72575000D01*
G37*
G36*
X107406560Y-72575000D02*
G01*
X107362840Y-72575000D01*
X107362840Y-72531280D01*
X107362840Y-72487561D01*
X107362840Y-72443841D01*
X107362840Y-72400122D01*
X107362840Y-72356402D01*
X107362840Y-72312683D01*
X107362840Y-72268963D01*
X107406560Y-72268963D01*
X107450279Y-72268963D01*
X107450279Y-72312683D01*
X107450279Y-72356402D01*
X107450279Y-72400122D01*
X107450279Y-72443841D01*
X107450279Y-72487561D01*
X107450279Y-72531280D01*
X107450279Y-72575000D01*
X107406560Y-72575000D01*
G37*
G36*
X107144243Y-72575000D02*
G01*
X107100523Y-72575000D01*
X107100523Y-72531280D01*
X107100523Y-72487561D01*
X107100523Y-72443841D01*
X107100523Y-72400122D01*
X107100523Y-72356402D01*
X107100523Y-72312683D01*
X107100523Y-72268963D01*
X107100523Y-72225244D01*
X107100523Y-72181524D01*
X107144243Y-72181524D01*
X107187962Y-72181524D01*
X107231682Y-72181524D01*
X107275401Y-72181524D01*
X107319121Y-72181524D01*
X107362840Y-72181524D01*
X107362840Y-72225244D01*
X107362840Y-72268963D01*
X107319121Y-72268963D01*
X107275401Y-72268963D01*
X107231682Y-72268963D01*
X107187962Y-72268963D01*
X107187962Y-72312683D01*
X107187962Y-72356402D01*
X107187962Y-72400122D01*
X107187962Y-72443841D01*
X107187962Y-72487561D01*
X107187962Y-72531280D01*
X107187962Y-72575000D01*
X107144243Y-72575000D01*
G37*
G36*
X107625157Y-72268963D02*
G01*
X107581438Y-72268963D01*
X107537718Y-72268963D01*
X107493999Y-72268963D01*
X107450279Y-72268963D01*
X107450279Y-72225244D01*
X107450279Y-72181524D01*
X107493999Y-72181524D01*
X107537718Y-72181524D01*
X107581438Y-72181524D01*
X107625157Y-72181524D01*
X107625157Y-72225244D01*
X107625157Y-72268963D01*
G37*
G36*
X108237230Y-72312683D02*
G01*
X108237230Y-72268963D01*
X108193510Y-72268963D01*
X108149791Y-72268963D01*
X108106071Y-72268963D01*
X108106071Y-72312683D01*
X108062352Y-72312683D01*
X108062352Y-72356402D01*
X108062352Y-72400122D01*
X108062352Y-72443841D01*
X108062352Y-72487561D01*
X108062352Y-72531280D01*
X108062352Y-72575000D01*
X108018632Y-72575000D01*
X107974913Y-72575000D01*
X107974913Y-72531280D01*
X107974913Y-72487561D01*
X107974913Y-72443841D01*
X107974913Y-72400122D01*
X107974913Y-72356402D01*
X107974913Y-72312683D01*
X107974913Y-72268963D01*
X107974913Y-72225244D01*
X107974913Y-72181524D01*
X108018632Y-72181524D01*
X108062352Y-72181524D01*
X108062352Y-72225244D01*
X108106071Y-72225244D01*
X108106071Y-72181524D01*
X108149791Y-72181524D01*
X108193510Y-72181524D01*
X108237230Y-72181524D01*
X108237230Y-72225244D01*
X108280949Y-72225244D01*
X108280949Y-72268963D01*
X108280949Y-72312683D01*
X108237230Y-72312683D01*
G37*
G36*
X108630705Y-72575000D02*
G01*
X108586985Y-72575000D01*
X108543266Y-72575000D01*
X108499547Y-72575000D01*
X108455827Y-72575000D01*
X108412108Y-72575000D01*
X108412108Y-72531280D01*
X108412108Y-72487561D01*
X108455827Y-72487561D01*
X108499547Y-72487561D01*
X108543266Y-72487561D01*
X108586985Y-72487561D01*
X108586985Y-72443841D01*
X108586985Y-72400122D01*
X108586985Y-72356402D01*
X108586985Y-72312683D01*
X108586985Y-72268963D01*
X108586985Y-72225244D01*
X108586985Y-72181524D01*
X108630705Y-72181524D01*
X108674424Y-72181524D01*
X108674424Y-72225244D01*
X108674424Y-72268963D01*
X108674424Y-72312683D01*
X108674424Y-72356402D01*
X108674424Y-72400122D01*
X108674424Y-72443841D01*
X108674424Y-72487561D01*
X108674424Y-72531280D01*
X108674424Y-72575000D01*
X108630705Y-72575000D01*
G37*
G36*
X108412108Y-72487561D02*
G01*
X108368388Y-72487561D01*
X108324669Y-72487561D01*
X108324669Y-72443841D01*
X108324669Y-72400122D01*
X108324669Y-72356402D01*
X108324669Y-72312683D01*
X108324669Y-72268963D01*
X108324669Y-72225244D01*
X108324669Y-72181524D01*
X108368388Y-72181524D01*
X108412108Y-72181524D01*
X108412108Y-72225244D01*
X108412108Y-72268963D01*
X108412108Y-72312683D01*
X108412108Y-72356402D01*
X108412108Y-72400122D01*
X108412108Y-72443841D01*
X108412108Y-72487561D01*
G37*
G36*
X109068144Y-72575000D02*
G01*
X109024424Y-72575000D01*
X109024424Y-72531280D01*
X109024424Y-72487561D01*
X109024424Y-72443841D01*
X109024424Y-72400122D01*
X109024424Y-72356402D01*
X109024424Y-72312683D01*
X109024424Y-72268963D01*
X109068144Y-72268963D01*
X109111863Y-72268963D01*
X109111863Y-72312683D01*
X109111863Y-72356402D01*
X109111863Y-72400122D01*
X109111863Y-72443841D01*
X109111863Y-72487561D01*
X109111863Y-72531280D01*
X109111863Y-72575000D01*
X109068144Y-72575000D01*
G37*
G36*
X108762108Y-72575000D02*
G01*
X108718388Y-72575000D01*
X108718388Y-72531280D01*
X108718388Y-72487561D01*
X108718388Y-72443841D01*
X108718388Y-72400122D01*
X108718388Y-72356402D01*
X108718388Y-72312683D01*
X108718388Y-72268963D01*
X108718388Y-72225244D01*
X108718388Y-72181524D01*
X108762108Y-72181524D01*
X108805827Y-72181524D01*
X108849547Y-72181524D01*
X108893266Y-72181524D01*
X108936985Y-72181524D01*
X108980705Y-72181524D01*
X109024424Y-72181524D01*
X109024424Y-72225244D01*
X109024424Y-72268963D01*
X108980705Y-72268963D01*
X108936985Y-72268963D01*
X108893266Y-72268963D01*
X108849547Y-72268963D01*
X108805827Y-72268963D01*
X108805827Y-72312683D01*
X108805827Y-72356402D01*
X108805827Y-72400122D01*
X108805827Y-72443841D01*
X108805827Y-72487561D01*
X108805827Y-72531280D01*
X108805827Y-72575000D01*
X108762108Y-72575000D01*
G37*
G36*
X109505339Y-72575000D02*
G01*
X109461619Y-72575000D01*
X109461619Y-72531280D01*
X109461619Y-72487561D01*
X109461619Y-72443841D01*
X109461619Y-72400122D01*
X109461619Y-72356402D01*
X109461619Y-72312683D01*
X109461619Y-72268963D01*
X109505339Y-72268963D01*
X109549058Y-72268963D01*
X109549058Y-72312683D01*
X109549058Y-72356402D01*
X109549058Y-72400122D01*
X109549058Y-72443841D01*
X109549058Y-72487561D01*
X109549058Y-72531280D01*
X109549058Y-72575000D01*
X109505339Y-72575000D01*
G37*
G36*
X109199302Y-72575000D02*
G01*
X109155583Y-72575000D01*
X109155583Y-72531280D01*
X109155583Y-72487561D01*
X109155583Y-72443841D01*
X109155583Y-72400122D01*
X109155583Y-72356402D01*
X109155583Y-72312683D01*
X109155583Y-72268963D01*
X109155583Y-72225244D01*
X109155583Y-72181524D01*
X109199302Y-72181524D01*
X109243022Y-72181524D01*
X109286741Y-72181524D01*
X109330461Y-72181524D01*
X109374180Y-72181524D01*
X109417900Y-72181524D01*
X109461619Y-72181524D01*
X109461619Y-72225244D01*
X109461619Y-72268963D01*
X109417900Y-72268963D01*
X109374180Y-72268963D01*
X109330461Y-72268963D01*
X109286741Y-72268963D01*
X109243022Y-72268963D01*
X109243022Y-72312683D01*
X109243022Y-72356402D01*
X109243022Y-72400122D01*
X109243022Y-72443841D01*
X109243022Y-72487561D01*
X109243022Y-72531280D01*
X109243022Y-72575000D01*
X109199302Y-72575000D01*
G37*
G36*
X109636497Y-72575000D02*
G01*
X109592777Y-72575000D01*
X109592777Y-72531280D01*
X109592777Y-72487561D01*
X109592777Y-72443841D01*
X109592777Y-72400122D01*
X109592777Y-72356402D01*
X109592777Y-72312683D01*
X109592777Y-72268963D01*
X109592777Y-72225244D01*
X109592777Y-72181524D01*
X109636497Y-72181524D01*
X109680216Y-72181524D01*
X109680216Y-72225244D01*
X109680216Y-72268963D01*
X109680216Y-72312683D01*
X109680216Y-72356402D01*
X109680216Y-72400122D01*
X109680216Y-72443841D01*
X109680216Y-72487561D01*
X109680216Y-72531280D01*
X109680216Y-72575000D01*
X109636497Y-72575000D01*
G37*
G36*
X109636497Y-72137805D02*
G01*
X109592777Y-72137805D01*
X109592777Y-72094085D01*
X109592777Y-72050366D01*
X109636497Y-72050366D01*
X109680216Y-72050366D01*
X109680216Y-72094085D01*
X109680216Y-72137805D01*
X109636497Y-72137805D01*
G37*
G36*
X110073447Y-72575000D02*
G01*
X110029728Y-72575000D01*
X110029728Y-72531280D01*
X110029728Y-72487561D01*
X110029728Y-72443841D01*
X110029728Y-72400122D01*
X110029728Y-72356402D01*
X110029728Y-72312683D01*
X110029728Y-72268963D01*
X110073447Y-72268963D01*
X110117167Y-72268963D01*
X110117167Y-72312683D01*
X110117167Y-72356402D01*
X110117167Y-72400122D01*
X110117167Y-72443841D01*
X110117167Y-72487561D01*
X110117167Y-72531280D01*
X110117167Y-72575000D01*
X110073447Y-72575000D01*
G37*
G36*
X109767411Y-72575000D02*
G01*
X109723692Y-72575000D01*
X109723692Y-72531280D01*
X109723692Y-72487561D01*
X109723692Y-72443841D01*
X109723692Y-72400122D01*
X109723692Y-72356402D01*
X109723692Y-72312683D01*
X109723692Y-72268963D01*
X109723692Y-72225244D01*
X109723692Y-72181524D01*
X109767411Y-72181524D01*
X109811131Y-72181524D01*
X109854850Y-72181524D01*
X109898570Y-72181524D01*
X109942289Y-72181524D01*
X109986008Y-72181524D01*
X110029728Y-72181524D01*
X110029728Y-72225244D01*
X110029728Y-72268963D01*
X109986008Y-72268963D01*
X109942289Y-72268963D01*
X109898570Y-72268963D01*
X109854850Y-72268963D01*
X109811131Y-72268963D01*
X109811131Y-72312683D01*
X109811131Y-72356402D01*
X109811131Y-72400122D01*
X109811131Y-72443841D01*
X109811131Y-72487561D01*
X109811131Y-72531280D01*
X109811131Y-72575000D01*
X109767411Y-72575000D01*
G37*
G36*
X110423203Y-72706158D02*
G01*
X110423203Y-72749877D01*
X110379484Y-72749877D01*
X110335764Y-72749877D01*
X110292045Y-72749877D01*
X110248325Y-72749877D01*
X110248325Y-72706158D01*
X110248325Y-72662438D01*
X110292045Y-72662438D01*
X110335764Y-72662438D01*
X110379484Y-72662438D01*
X110423203Y-72662438D01*
X110423203Y-72706158D01*
G37*
G36*
X110248325Y-72618719D02*
G01*
X110248325Y-72662438D01*
X110204606Y-72662438D01*
X110160886Y-72662438D01*
X110160886Y-72618719D01*
X110160886Y-72575000D01*
X110204606Y-72575000D01*
X110248325Y-72575000D01*
X110248325Y-72618719D01*
G37*
G36*
X110510642Y-72225244D02*
G01*
X110510642Y-72268963D01*
X110510642Y-72312683D01*
X110510642Y-72356402D01*
X110510642Y-72400122D01*
X110510642Y-72443841D01*
X110510642Y-72487561D01*
X110510642Y-72531280D01*
X110510642Y-72575000D01*
X110510642Y-72618719D01*
X110510642Y-72662438D01*
X110466923Y-72662438D01*
X110423203Y-72662438D01*
X110423203Y-72618719D01*
X110423203Y-72575000D01*
X110423203Y-72531280D01*
X110423203Y-72487561D01*
X110423203Y-72443841D01*
X110379484Y-72443841D01*
X110335764Y-72443841D01*
X110292045Y-72443841D01*
X110248325Y-72443841D01*
X110248325Y-72400122D01*
X110248325Y-72356402D01*
X110204606Y-72356402D01*
X110160886Y-72356402D01*
X110160886Y-72312683D01*
X110248325Y-72312683D01*
X110248325Y-72356402D01*
X110292045Y-72356402D01*
X110335764Y-72356402D01*
X110379484Y-72356402D01*
X110423203Y-72356402D01*
X110423203Y-72312683D01*
X110423203Y-72268963D01*
X110379484Y-72268963D01*
X110335764Y-72268963D01*
X110292045Y-72268963D01*
X110248325Y-72268963D01*
X110248325Y-72312683D01*
X110160886Y-72312683D01*
X110160886Y-72268963D01*
X110204606Y-72268963D01*
X110248325Y-72268963D01*
X110248325Y-72225244D01*
X110248325Y-72181524D01*
X110292045Y-72181524D01*
X110335764Y-72181524D01*
X110379484Y-72181524D01*
X110423203Y-72181524D01*
X110466923Y-72181524D01*
X110510642Y-72181524D01*
X110510642Y-72225244D01*
G37*
G36*
X110816678Y-72575000D02*
G01*
X110772959Y-72575000D01*
X110772959Y-72531280D01*
X110772959Y-72487561D01*
X110772959Y-72443841D01*
X110772959Y-72400122D01*
X110772959Y-72356402D01*
X110772959Y-72312683D01*
X110772959Y-72268963D01*
X110772959Y-72225244D01*
X110772959Y-72181524D01*
X110816678Y-72181524D01*
X110860398Y-72181524D01*
X110860398Y-72225244D01*
X110860398Y-72268963D01*
X110860398Y-72312683D01*
X110860398Y-72356402D01*
X110860398Y-72400122D01*
X110860398Y-72443841D01*
X110860398Y-72487561D01*
X110860398Y-72531280D01*
X110860398Y-72575000D01*
X110816678Y-72575000D01*
G37*
G36*
X110816678Y-72137805D02*
G01*
X110772959Y-72137805D01*
X110772959Y-72094085D01*
X110772959Y-72050366D01*
X110816678Y-72050366D01*
X110860398Y-72050366D01*
X110860398Y-72094085D01*
X110860398Y-72137805D01*
X110816678Y-72137805D01*
G37*
G36*
X111253629Y-72575000D02*
G01*
X111209909Y-72575000D01*
X111209909Y-72531280D01*
X111209909Y-72487561D01*
X111209909Y-72443841D01*
X111209909Y-72400122D01*
X111209909Y-72356402D01*
X111209909Y-72312683D01*
X111209909Y-72268963D01*
X111253629Y-72268963D01*
X111297348Y-72268963D01*
X111297348Y-72312683D01*
X111297348Y-72356402D01*
X111297348Y-72400122D01*
X111297348Y-72443841D01*
X111297348Y-72487561D01*
X111297348Y-72531280D01*
X111297348Y-72575000D01*
X111253629Y-72575000D01*
G37*
G36*
X110947593Y-72575000D02*
G01*
X110903873Y-72575000D01*
X110903873Y-72531280D01*
X110903873Y-72487561D01*
X110903873Y-72443841D01*
X110903873Y-72400122D01*
X110903873Y-72356402D01*
X110903873Y-72312683D01*
X110903873Y-72268963D01*
X110903873Y-72225244D01*
X110903873Y-72181524D01*
X110947593Y-72181524D01*
X110991312Y-72181524D01*
X111035032Y-72181524D01*
X111078751Y-72181524D01*
X111122470Y-72181524D01*
X111166190Y-72181524D01*
X111209909Y-72181524D01*
X111209909Y-72225244D01*
X111209909Y-72268963D01*
X111166190Y-72268963D01*
X111122470Y-72268963D01*
X111078751Y-72268963D01*
X111035032Y-72268963D01*
X110991312Y-72268963D01*
X110991312Y-72312683D01*
X110991312Y-72356402D01*
X110991312Y-72400122D01*
X110991312Y-72443841D01*
X110991312Y-72487561D01*
X110991312Y-72531280D01*
X110991312Y-72575000D01*
X110947593Y-72575000D01*
G37*
G36*
X111821738Y-72575000D02*
G01*
X111778018Y-72575000D01*
X111734299Y-72575000D01*
X111690579Y-72575000D01*
X111646860Y-72575000D01*
X111646860Y-72531280D01*
X111646860Y-72487561D01*
X111690579Y-72487561D01*
X111734299Y-72487561D01*
X111778018Y-72487561D01*
X111821738Y-72487561D01*
X111865457Y-72487561D01*
X111865457Y-72531280D01*
X111865457Y-72575000D01*
X111821738Y-72575000D01*
G37*
G36*
X111865457Y-72487561D02*
G01*
X111865457Y-72443841D01*
X111865457Y-72400122D01*
X111909177Y-72400122D01*
X111952896Y-72400122D01*
X111952896Y-72443841D01*
X111952896Y-72487561D01*
X111909177Y-72487561D01*
X111865457Y-72487561D01*
G37*
G36*
X111646860Y-72487561D02*
G01*
X111603140Y-72487561D01*
X111559421Y-72487561D01*
X111559421Y-72443841D01*
X111559421Y-72400122D01*
X111559421Y-72356402D01*
X111559421Y-72312683D01*
X111559421Y-72268963D01*
X111603140Y-72268963D01*
X111646860Y-72268963D01*
X111646860Y-72312683D01*
X111646860Y-72356402D01*
X111646860Y-72400122D01*
X111646860Y-72443841D01*
X111646860Y-72487561D01*
G37*
G36*
X111909177Y-72356402D02*
G01*
X111865457Y-72356402D01*
X111865457Y-72312683D01*
X111865457Y-72268963D01*
X111909177Y-72268963D01*
X111952896Y-72268963D01*
X111952896Y-72312683D01*
X111952896Y-72356402D01*
X111909177Y-72356402D01*
G37*
G36*
X111865457Y-72268963D02*
G01*
X111821738Y-72268963D01*
X111778018Y-72268963D01*
X111734299Y-72268963D01*
X111690579Y-72268963D01*
X111646860Y-72268963D01*
X111646860Y-72225244D01*
X111646860Y-72181524D01*
X111690579Y-72181524D01*
X111734299Y-72181524D01*
X111778018Y-72181524D01*
X111821738Y-72181524D01*
X111865457Y-72181524D01*
X111865457Y-72225244D01*
X111865457Y-72268963D01*
G37*
G36*
X112040335Y-72575000D02*
G01*
X111996616Y-72575000D01*
X111996616Y-72531280D01*
X111996616Y-72487561D01*
X111996616Y-72443841D01*
X111996616Y-72400122D01*
X111996616Y-72356402D01*
X111996616Y-72312683D01*
X111996616Y-72268963D01*
X111996616Y-72225244D01*
X111996616Y-72181524D01*
X112040335Y-72181524D01*
X112084055Y-72181524D01*
X112084055Y-72225244D01*
X112084055Y-72268963D01*
X112084055Y-72312683D01*
X112084055Y-72356402D01*
X112084055Y-72400122D01*
X112084055Y-72443841D01*
X112084055Y-72487561D01*
X112084055Y-72531280D01*
X112084055Y-72575000D01*
X112040335Y-72575000D01*
G37*
G36*
X112040335Y-72137805D02*
G01*
X111996616Y-72137805D01*
X111996616Y-72094085D01*
X111996616Y-72050366D01*
X112040335Y-72050366D01*
X112084055Y-72050366D01*
X112084055Y-72094085D01*
X112084055Y-72137805D01*
X112040335Y-72137805D01*
G37*
G36*
X112389847Y-72312683D02*
G01*
X112389847Y-72268963D01*
X112346127Y-72268963D01*
X112302408Y-72268963D01*
X112258688Y-72268963D01*
X112258688Y-72312683D01*
X112214969Y-72312683D01*
X112214969Y-72356402D01*
X112214969Y-72400122D01*
X112214969Y-72443841D01*
X112214969Y-72487561D01*
X112214969Y-72531280D01*
X112214969Y-72575000D01*
X112171249Y-72575000D01*
X112127530Y-72575000D01*
X112127530Y-72531280D01*
X112127530Y-72487561D01*
X112127530Y-72443841D01*
X112127530Y-72400122D01*
X112127530Y-72356402D01*
X112127530Y-72312683D01*
X112127530Y-72268963D01*
X112127530Y-72225244D01*
X112127530Y-72181524D01*
X112171249Y-72181524D01*
X112214969Y-72181524D01*
X112214969Y-72225244D01*
X112258688Y-72225244D01*
X112258688Y-72181524D01*
X112302408Y-72181524D01*
X112346127Y-72181524D01*
X112389847Y-72181524D01*
X112389847Y-72225244D01*
X112433566Y-72225244D01*
X112433566Y-72268963D01*
X112433566Y-72312683D01*
X112389847Y-72312683D01*
G37*
G36*
X112739602Y-72575000D02*
G01*
X112695883Y-72575000D01*
X112652163Y-72575000D01*
X112608444Y-72575000D01*
X112564724Y-72575000D01*
X112564724Y-72531280D01*
X112564724Y-72487561D01*
X112608444Y-72487561D01*
X112652163Y-72487561D01*
X112695883Y-72487561D01*
X112739602Y-72487561D01*
X112783322Y-72487561D01*
X112783322Y-72531280D01*
X112783322Y-72575000D01*
X112739602Y-72575000D01*
G37*
G36*
X112783322Y-72487561D02*
G01*
X112783322Y-72443841D01*
X112783322Y-72400122D01*
X112827041Y-72400122D01*
X112870761Y-72400122D01*
X112870761Y-72443841D01*
X112870761Y-72487561D01*
X112827041Y-72487561D01*
X112783322Y-72487561D01*
G37*
G36*
X112564724Y-72487561D02*
G01*
X112521005Y-72487561D01*
X112477286Y-72487561D01*
X112477286Y-72443841D01*
X112477286Y-72400122D01*
X112477286Y-72356402D01*
X112477286Y-72312683D01*
X112477286Y-72268963D01*
X112521005Y-72268963D01*
X112564724Y-72268963D01*
X112564724Y-72312683D01*
X112564724Y-72356402D01*
X112564724Y-72400122D01*
X112564724Y-72443841D01*
X112564724Y-72487561D01*
G37*
G36*
X112827041Y-72356402D02*
G01*
X112783322Y-72356402D01*
X112783322Y-72312683D01*
X112783322Y-72268963D01*
X112827041Y-72268963D01*
X112870761Y-72268963D01*
X112870761Y-72312683D01*
X112870761Y-72356402D01*
X112827041Y-72356402D01*
G37*
G36*
X112783322Y-72268963D02*
G01*
X112739602Y-72268963D01*
X112695883Y-72268963D01*
X112652163Y-72268963D01*
X112608444Y-72268963D01*
X112564724Y-72268963D01*
X112564724Y-72225244D01*
X112564724Y-72181524D01*
X112608444Y-72181524D01*
X112652163Y-72181524D01*
X112695883Y-72181524D01*
X112739602Y-72181524D01*
X112783322Y-72181524D01*
X112783322Y-72225244D01*
X112783322Y-72268963D01*
G37*
G36*
X112958200Y-72575000D02*
G01*
X112914480Y-72575000D01*
X112914480Y-72531280D01*
X112914480Y-72487561D01*
X112914480Y-72443841D01*
X112914480Y-72400122D01*
X112914480Y-72356402D01*
X112914480Y-72312683D01*
X112914480Y-72268963D01*
X112914480Y-72225244D01*
X112914480Y-72181524D01*
X112914480Y-72137805D01*
X112914480Y-72094085D01*
X112914480Y-72050366D01*
X112958200Y-72050366D01*
X113001919Y-72050366D01*
X113001919Y-72094085D01*
X113001919Y-72137805D01*
X113001919Y-72181524D01*
X113001919Y-72225244D01*
X113001919Y-72268963D01*
X113001919Y-72312683D01*
X113001919Y-72356402D01*
X113001919Y-72400122D01*
X113001919Y-72443841D01*
X113001919Y-72487561D01*
X113001919Y-72531280D01*
X113001919Y-72575000D01*
X112958200Y-72575000D01*
G37*
G36*
X113395150Y-72487561D02*
G01*
X113395150Y-72531280D01*
X113395150Y-72575000D01*
X113351431Y-72575000D01*
X113307711Y-72575000D01*
X113263992Y-72575000D01*
X113220272Y-72575000D01*
X113176553Y-72575000D01*
X113132833Y-72575000D01*
X113132833Y-72531280D01*
X113132833Y-72487561D01*
X113176553Y-72487561D01*
X113220272Y-72487561D01*
X113263992Y-72487561D01*
X113307711Y-72487561D01*
X113307711Y-72443841D01*
X113351431Y-72443841D01*
X113395150Y-72443841D01*
X113395150Y-72487561D01*
G37*
G36*
X113395150Y-72225244D02*
G01*
X113395150Y-72268963D01*
X113395150Y-72312683D01*
X113395150Y-72356402D01*
X113351431Y-72356402D01*
X113307711Y-72356402D01*
X113307711Y-72400122D01*
X113263992Y-72400122D01*
X113220272Y-72400122D01*
X113176553Y-72400122D01*
X113132833Y-72400122D01*
X113132833Y-72443841D01*
X113132833Y-72487561D01*
X113089114Y-72487561D01*
X113045394Y-72487561D01*
X113045394Y-72443841D01*
X113045394Y-72400122D01*
X113045394Y-72356402D01*
X113045394Y-72312683D01*
X113132833Y-72312683D01*
X113176553Y-72312683D01*
X113220272Y-72312683D01*
X113263992Y-72312683D01*
X113307711Y-72312683D01*
X113307711Y-72268963D01*
X113263992Y-72268963D01*
X113220272Y-72268963D01*
X113176553Y-72268963D01*
X113132833Y-72268963D01*
X113132833Y-72312683D01*
X113045394Y-72312683D01*
X113045394Y-72268963D01*
X113089114Y-72268963D01*
X113132833Y-72268963D01*
X113132833Y-72225244D01*
X113132833Y-72181524D01*
X113176553Y-72181524D01*
X113220272Y-72181524D01*
X113263992Y-72181524D01*
X113307711Y-72181524D01*
X113351431Y-72181524D01*
X113395150Y-72181524D01*
X113395150Y-72225244D01*
G37*
G36*
X113613992Y-72575000D02*
G01*
X113570272Y-72575000D01*
X113526553Y-72575000D01*
X113482833Y-72575000D01*
X113439114Y-72575000D01*
X113439114Y-72531280D01*
X113439114Y-72487561D01*
X113482833Y-72487561D01*
X113526553Y-72487561D01*
X113570272Y-72487561D01*
X113613992Y-72487561D01*
X113657711Y-72487561D01*
X113657711Y-72531280D01*
X113657711Y-72575000D01*
X113613992Y-72575000D01*
G37*
G36*
X113657711Y-72487561D02*
G01*
X113657711Y-72443841D01*
X113657711Y-72400122D01*
X113701431Y-72400122D01*
X113745150Y-72400122D01*
X113745150Y-72443841D01*
X113745150Y-72487561D01*
X113701431Y-72487561D01*
X113657711Y-72487561D01*
G37*
G36*
X113657711Y-72400122D02*
G01*
X113613992Y-72400122D01*
X113570272Y-72400122D01*
X113526553Y-72400122D01*
X113526553Y-72356402D01*
X113526553Y-72312683D01*
X113570272Y-72312683D01*
X113613992Y-72312683D01*
X113657711Y-72312683D01*
X113657711Y-72356402D01*
X113657711Y-72400122D01*
G37*
G36*
X113526553Y-72312683D02*
G01*
X113482833Y-72312683D01*
X113439114Y-72312683D01*
X113439114Y-72268963D01*
X113439114Y-72225244D01*
X113482833Y-72225244D01*
X113526553Y-72225244D01*
X113526553Y-72268963D01*
X113526553Y-72312683D01*
G37*
G36*
X113701431Y-72225244D02*
G01*
X113657711Y-72225244D01*
X113613992Y-72225244D01*
X113570272Y-72225244D01*
X113526553Y-72225244D01*
X113526553Y-72181524D01*
X113526553Y-72137805D01*
X113570272Y-72137805D01*
X113613992Y-72137805D01*
X113657711Y-72137805D01*
X113701431Y-72137805D01*
X113745150Y-72137805D01*
X113745150Y-72181524D01*
X113745150Y-72225244D01*
X113701431Y-72225244D01*
G37*
G36*
X114400698Y-72312683D02*
G01*
X114400698Y-72356402D01*
X114400698Y-72400122D01*
X114400698Y-72443841D01*
X114400698Y-72487561D01*
X114400698Y-72531280D01*
X114400698Y-72575000D01*
X114356978Y-72575000D01*
X114313259Y-72575000D01*
X114269540Y-72575000D01*
X114225820Y-72575000D01*
X114182101Y-72575000D01*
X114138381Y-72575000D01*
X114094662Y-72575000D01*
X114094662Y-72531280D01*
X114094662Y-72487561D01*
X114050942Y-72487561D01*
X114007223Y-72487561D01*
X114007223Y-72443841D01*
X114094662Y-72443841D01*
X114094662Y-72487561D01*
X114138381Y-72487561D01*
X114182101Y-72487561D01*
X114225820Y-72487561D01*
X114269540Y-72487561D01*
X114313259Y-72487561D01*
X114313259Y-72443841D01*
X114313259Y-72400122D01*
X114269540Y-72400122D01*
X114225820Y-72400122D01*
X114182101Y-72400122D01*
X114138381Y-72400122D01*
X114094662Y-72400122D01*
X114094662Y-72443841D01*
X114007223Y-72443841D01*
X114007223Y-72400122D01*
X114050942Y-72400122D01*
X114094662Y-72400122D01*
X114094662Y-72356402D01*
X114094662Y-72312683D01*
X114138381Y-72312683D01*
X114182101Y-72312683D01*
X114225820Y-72312683D01*
X114269540Y-72312683D01*
X114313259Y-72312683D01*
X114313259Y-72268963D01*
X114356978Y-72268963D01*
X114400698Y-72268963D01*
X114400698Y-72312683D01*
G37*
G36*
X114313259Y-72225244D02*
G01*
X114313259Y-72268963D01*
X114269540Y-72268963D01*
X114225820Y-72268963D01*
X114182101Y-72268963D01*
X114138381Y-72268963D01*
X114094662Y-72268963D01*
X114050942Y-72268963D01*
X114007223Y-72268963D01*
X114007223Y-72225244D01*
X114007223Y-72181524D01*
X114050942Y-72181524D01*
X114094662Y-72181524D01*
X114138381Y-72181524D01*
X114182101Y-72181524D01*
X114225820Y-72181524D01*
X114269540Y-72181524D01*
X114313259Y-72181524D01*
X114313259Y-72225244D01*
G37*
G36*
X114706734Y-72312683D02*
G01*
X114706734Y-72268963D01*
X114663015Y-72268963D01*
X114619295Y-72268963D01*
X114575576Y-72268963D01*
X114575576Y-72312683D01*
X114531856Y-72312683D01*
X114531856Y-72356402D01*
X114531856Y-72400122D01*
X114531856Y-72443841D01*
X114531856Y-72487561D01*
X114531856Y-72531280D01*
X114531856Y-72575000D01*
X114488137Y-72575000D01*
X114444417Y-72575000D01*
X114444417Y-72531280D01*
X114444417Y-72487561D01*
X114444417Y-72443841D01*
X114444417Y-72400122D01*
X114444417Y-72356402D01*
X114444417Y-72312683D01*
X114444417Y-72268963D01*
X114444417Y-72225244D01*
X114444417Y-72181524D01*
X114488137Y-72181524D01*
X114531856Y-72181524D01*
X114531856Y-72225244D01*
X114575576Y-72225244D01*
X114575576Y-72181524D01*
X114619295Y-72181524D01*
X114663015Y-72181524D01*
X114706734Y-72181524D01*
X114706734Y-72225244D01*
X114750454Y-72225244D01*
X114750454Y-72268963D01*
X114750454Y-72312683D01*
X114706734Y-72312683D01*
G37*
G36*
X115056490Y-72312683D02*
G01*
X115056490Y-72268963D01*
X115012771Y-72268963D01*
X114969051Y-72268963D01*
X114925332Y-72268963D01*
X114925332Y-72312683D01*
X114881612Y-72312683D01*
X114881612Y-72356402D01*
X114881612Y-72400122D01*
X114881612Y-72443841D01*
X114881612Y-72487561D01*
X114881612Y-72531280D01*
X114881612Y-72575000D01*
X114837893Y-72575000D01*
X114794173Y-72575000D01*
X114794173Y-72531280D01*
X114794173Y-72487561D01*
X114794173Y-72443841D01*
X114794173Y-72400122D01*
X114794173Y-72356402D01*
X114794173Y-72312683D01*
X114794173Y-72268963D01*
X114794173Y-72225244D01*
X114794173Y-72181524D01*
X114837893Y-72181524D01*
X114881612Y-72181524D01*
X114881612Y-72225244D01*
X114925332Y-72225244D01*
X114925332Y-72181524D01*
X114969051Y-72181524D01*
X115012771Y-72181524D01*
X115056490Y-72181524D01*
X115056490Y-72225244D01*
X115100209Y-72225244D01*
X115100209Y-72268963D01*
X115100209Y-72312683D01*
X115056490Y-72312683D01*
G37*
G36*
X115362526Y-72575000D02*
G01*
X115318807Y-72575000D01*
X115275087Y-72575000D01*
X115231368Y-72575000D01*
X115231368Y-72531280D01*
X115231368Y-72487561D01*
X115275087Y-72487561D01*
X115318807Y-72487561D01*
X115362526Y-72487561D01*
X115406246Y-72487561D01*
X115406246Y-72531280D01*
X115406246Y-72575000D01*
X115362526Y-72575000D01*
G37*
G36*
X115406246Y-72487561D02*
G01*
X115406246Y-72443841D01*
X115406246Y-72400122D01*
X115406246Y-72356402D01*
X115406246Y-72312683D01*
X115406246Y-72268963D01*
X115449965Y-72268963D01*
X115493685Y-72268963D01*
X115493685Y-72312683D01*
X115493685Y-72356402D01*
X115493685Y-72400122D01*
X115493685Y-72443841D01*
X115493685Y-72487561D01*
X115449965Y-72487561D01*
X115406246Y-72487561D01*
G37*
G36*
X115231368Y-72487561D02*
G01*
X115187648Y-72487561D01*
X115143929Y-72487561D01*
X115143929Y-72443841D01*
X115143929Y-72400122D01*
X115143929Y-72356402D01*
X115143929Y-72312683D01*
X115143929Y-72268963D01*
X115187648Y-72268963D01*
X115231368Y-72268963D01*
X115231368Y-72312683D01*
X115231368Y-72356402D01*
X115231368Y-72400122D01*
X115231368Y-72443841D01*
X115231368Y-72487561D01*
G37*
G36*
X115406246Y-72268963D02*
G01*
X115362526Y-72268963D01*
X115318807Y-72268963D01*
X115275087Y-72268963D01*
X115231368Y-72268963D01*
X115231368Y-72225244D01*
X115231368Y-72181524D01*
X115275087Y-72181524D01*
X115318807Y-72181524D01*
X115362526Y-72181524D01*
X115406246Y-72181524D01*
X115406246Y-72225244D01*
X115406246Y-72268963D01*
G37*
G36*
X115843685Y-72575000D02*
G01*
X115799965Y-72575000D01*
X115756246Y-72575000D01*
X115712526Y-72575000D01*
X115668807Y-72575000D01*
X115625087Y-72575000D01*
X115625087Y-72531280D01*
X115625087Y-72487561D01*
X115668807Y-72487561D01*
X115712526Y-72487561D01*
X115756246Y-72487561D01*
X115799965Y-72487561D01*
X115799965Y-72443841D01*
X115799965Y-72400122D01*
X115799965Y-72356402D01*
X115799965Y-72312683D01*
X115799965Y-72268963D01*
X115799965Y-72225244D01*
X115799965Y-72181524D01*
X115843685Y-72181524D01*
X115887404Y-72181524D01*
X115887404Y-72225244D01*
X115887404Y-72268963D01*
X115887404Y-72312683D01*
X115887404Y-72356402D01*
X115887404Y-72400122D01*
X115887404Y-72443841D01*
X115887404Y-72487561D01*
X115887404Y-72531280D01*
X115887404Y-72575000D01*
X115843685Y-72575000D01*
G37*
G36*
X115625087Y-72487561D02*
G01*
X115581368Y-72487561D01*
X115537648Y-72487561D01*
X115537648Y-72443841D01*
X115537648Y-72400122D01*
X115537648Y-72356402D01*
X115537648Y-72312683D01*
X115537648Y-72268963D01*
X115537648Y-72225244D01*
X115537648Y-72181524D01*
X115581368Y-72181524D01*
X115625087Y-72181524D01*
X115625087Y-72225244D01*
X115625087Y-72268963D01*
X115625087Y-72312683D01*
X115625087Y-72356402D01*
X115625087Y-72400122D01*
X115625087Y-72443841D01*
X115625087Y-72487561D01*
G37*
G36*
X116281124Y-72575000D02*
G01*
X116237404Y-72575000D01*
X116237404Y-72531280D01*
X116237404Y-72487561D01*
X116237404Y-72443841D01*
X116237404Y-72400122D01*
X116237404Y-72356402D01*
X116237404Y-72312683D01*
X116237404Y-72268963D01*
X116281124Y-72268963D01*
X116324843Y-72268963D01*
X116324843Y-72312683D01*
X116324843Y-72356402D01*
X116324843Y-72400122D01*
X116324843Y-72443841D01*
X116324843Y-72487561D01*
X116324843Y-72531280D01*
X116324843Y-72575000D01*
X116281124Y-72575000D01*
G37*
G36*
X115975087Y-72575000D02*
G01*
X115931368Y-72575000D01*
X115931368Y-72531280D01*
X115931368Y-72487561D01*
X115931368Y-72443841D01*
X115931368Y-72400122D01*
X115931368Y-72356402D01*
X115931368Y-72312683D01*
X115931368Y-72268963D01*
X115931368Y-72225244D01*
X115931368Y-72181524D01*
X115975087Y-72181524D01*
X116018807Y-72181524D01*
X116062526Y-72181524D01*
X116106246Y-72181524D01*
X116149965Y-72181524D01*
X116193685Y-72181524D01*
X116237404Y-72181524D01*
X116237404Y-72225244D01*
X116237404Y-72268963D01*
X116193685Y-72268963D01*
X116149965Y-72268963D01*
X116106246Y-72268963D01*
X116062526Y-72268963D01*
X116018807Y-72268963D01*
X116018807Y-72312683D01*
X116018807Y-72356402D01*
X116018807Y-72400122D01*
X116018807Y-72443841D01*
X116018807Y-72487561D01*
X116018807Y-72531280D01*
X116018807Y-72575000D01*
X115975087Y-72575000D01*
G37*
G36*
X116718318Y-72094085D02*
G01*
X116718318Y-72137805D01*
X116718318Y-72181524D01*
X116718318Y-72225244D01*
X116718318Y-72268963D01*
X116718318Y-72312683D01*
X116718318Y-72356402D01*
X116718318Y-72400122D01*
X116718318Y-72443841D01*
X116718318Y-72487561D01*
X116718318Y-72531280D01*
X116718318Y-72575000D01*
X116674599Y-72575000D01*
X116630879Y-72575000D01*
X116587160Y-72575000D01*
X116543440Y-72575000D01*
X116499721Y-72575000D01*
X116456002Y-72575000D01*
X116412282Y-72575000D01*
X116368563Y-72575000D01*
X116368563Y-72531280D01*
X116368563Y-72487561D01*
X116368563Y-72443841D01*
X116368563Y-72400122D01*
X116368563Y-72356402D01*
X116368563Y-72312683D01*
X116456002Y-72312683D01*
X116456002Y-72356402D01*
X116456002Y-72400122D01*
X116456002Y-72443841D01*
X116456002Y-72487561D01*
X116499721Y-72487561D01*
X116543440Y-72487561D01*
X116587160Y-72487561D01*
X116630879Y-72487561D01*
X116630879Y-72443841D01*
X116630879Y-72400122D01*
X116630879Y-72356402D01*
X116630879Y-72312683D01*
X116630879Y-72268963D01*
X116587160Y-72268963D01*
X116543440Y-72268963D01*
X116499721Y-72268963D01*
X116456002Y-72268963D01*
X116456002Y-72312683D01*
X116368563Y-72312683D01*
X116368563Y-72268963D01*
X116412282Y-72268963D01*
X116456002Y-72268963D01*
X116456002Y-72225244D01*
X116456002Y-72181524D01*
X116499721Y-72181524D01*
X116543440Y-72181524D01*
X116587160Y-72181524D01*
X116630879Y-72181524D01*
X116630879Y-72137805D01*
X116630879Y-72094085D01*
X116630879Y-72050366D01*
X116674599Y-72050366D01*
X116718318Y-72050366D01*
X116718318Y-72094085D01*
G37*
G36*
X117199232Y-72662438D02*
G01*
X117155513Y-72662438D01*
X117111794Y-72662438D01*
X117068074Y-72662438D01*
X117024355Y-72662438D01*
X116980635Y-72662438D01*
X116980635Y-72618719D01*
X116980635Y-72575000D01*
X117024355Y-72575000D01*
X117068074Y-72575000D01*
X117111794Y-72575000D01*
X117155513Y-72575000D01*
X117199232Y-72575000D01*
X117242952Y-72575000D01*
X117242952Y-72618719D01*
X117242952Y-72662438D01*
X117199232Y-72662438D01*
G37*
G36*
X117242952Y-72575000D02*
G01*
X117242952Y-72531280D01*
X117242952Y-72487561D01*
X117199232Y-72487561D01*
X117155513Y-72487561D01*
X117111794Y-72487561D01*
X117068074Y-72487561D01*
X117068074Y-72443841D01*
X117068074Y-72400122D01*
X117111794Y-72400122D01*
X117155513Y-72400122D01*
X117199232Y-72400122D01*
X117242952Y-72400122D01*
X117242952Y-72356402D01*
X117242952Y-72312683D01*
X117242952Y-72268963D01*
X117242952Y-72225244D01*
X117242952Y-72181524D01*
X117286671Y-72181524D01*
X117330391Y-72181524D01*
X117330391Y-72225244D01*
X117330391Y-72268963D01*
X117330391Y-72312683D01*
X117330391Y-72356402D01*
X117330391Y-72400122D01*
X117330391Y-72443841D01*
X117330391Y-72487561D01*
X117330391Y-72531280D01*
X117330391Y-72575000D01*
X117286671Y-72575000D01*
X117242952Y-72575000D01*
G37*
G36*
X117068074Y-72400122D02*
G01*
X117024355Y-72400122D01*
X116980635Y-72400122D01*
X116980635Y-72356402D01*
X116980635Y-72312683D01*
X116980635Y-72268963D01*
X116980635Y-72225244D01*
X116980635Y-72181524D01*
X117024355Y-72181524D01*
X117068074Y-72181524D01*
X117068074Y-72225244D01*
X117068074Y-72268963D01*
X117068074Y-72312683D01*
X117068074Y-72356402D01*
X117068074Y-72400122D01*
G37*
G36*
X117592952Y-72575000D02*
G01*
X117549232Y-72575000D01*
X117505513Y-72575000D01*
X117461794Y-72575000D01*
X117461794Y-72531280D01*
X117461794Y-72487561D01*
X117505513Y-72487561D01*
X117549232Y-72487561D01*
X117592952Y-72487561D01*
X117636671Y-72487561D01*
X117636671Y-72531280D01*
X117636671Y-72575000D01*
X117592952Y-72575000D01*
G37*
G36*
X117636671Y-72487561D02*
G01*
X117636671Y-72443841D01*
X117636671Y-72400122D01*
X117636671Y-72356402D01*
X117636671Y-72312683D01*
X117636671Y-72268963D01*
X117680391Y-72268963D01*
X117724110Y-72268963D01*
X117724110Y-72312683D01*
X117724110Y-72356402D01*
X117724110Y-72400122D01*
X117724110Y-72443841D01*
X117724110Y-72487561D01*
X117680391Y-72487561D01*
X117636671Y-72487561D01*
G37*
G36*
X117461794Y-72487561D02*
G01*
X117418074Y-72487561D01*
X117374355Y-72487561D01*
X117374355Y-72443841D01*
X117374355Y-72400122D01*
X117374355Y-72356402D01*
X117374355Y-72312683D01*
X117374355Y-72268963D01*
X117418074Y-72268963D01*
X117461794Y-72268963D01*
X117461794Y-72312683D01*
X117461794Y-72356402D01*
X117461794Y-72400122D01*
X117461794Y-72443841D01*
X117461794Y-72487561D01*
G37*
G36*
X117636671Y-72268963D02*
G01*
X117592952Y-72268963D01*
X117549232Y-72268963D01*
X117505513Y-72268963D01*
X117461794Y-72268963D01*
X117461794Y-72225244D01*
X117461794Y-72181524D01*
X117505513Y-72181524D01*
X117549232Y-72181524D01*
X117592952Y-72181524D01*
X117636671Y-72181524D01*
X117636671Y-72225244D01*
X117636671Y-72268963D01*
G37*
G36*
X118074110Y-72575000D02*
G01*
X118030391Y-72575000D01*
X117986671Y-72575000D01*
X117942952Y-72575000D01*
X117899232Y-72575000D01*
X117855513Y-72575000D01*
X117855513Y-72531280D01*
X117855513Y-72487561D01*
X117899232Y-72487561D01*
X117942952Y-72487561D01*
X117986671Y-72487561D01*
X118030391Y-72487561D01*
X118030391Y-72443841D01*
X118030391Y-72400122D01*
X118030391Y-72356402D01*
X118030391Y-72312683D01*
X118030391Y-72268963D01*
X118030391Y-72225244D01*
X118030391Y-72181524D01*
X118074110Y-72181524D01*
X118117830Y-72181524D01*
X118117830Y-72225244D01*
X118117830Y-72268963D01*
X118117830Y-72312683D01*
X118117830Y-72356402D01*
X118117830Y-72400122D01*
X118117830Y-72443841D01*
X118117830Y-72487561D01*
X118117830Y-72531280D01*
X118117830Y-72575000D01*
X118074110Y-72575000D01*
G37*
G36*
X117855513Y-72487561D02*
G01*
X117811794Y-72487561D01*
X117768074Y-72487561D01*
X117768074Y-72443841D01*
X117768074Y-72400122D01*
X117768074Y-72356402D01*
X117768074Y-72312683D01*
X117768074Y-72268963D01*
X117768074Y-72225244D01*
X117768074Y-72181524D01*
X117811794Y-72181524D01*
X117855513Y-72181524D01*
X117855513Y-72225244D01*
X117855513Y-72268963D01*
X117855513Y-72312683D01*
X117855513Y-72356402D01*
X117855513Y-72400122D01*
X117855513Y-72443841D01*
X117855513Y-72487561D01*
G37*
G36*
X118205513Y-72575000D02*
G01*
X118161794Y-72575000D01*
X118161794Y-72531280D01*
X118161794Y-72487561D01*
X118205513Y-72487561D01*
X118249232Y-72487561D01*
X118249232Y-72531280D01*
X118249232Y-72575000D01*
X118205513Y-72575000D01*
G37*
G36*
X118205513Y-72443841D02*
G01*
X118161794Y-72443841D01*
X118161794Y-72400122D01*
X118161794Y-72356402D01*
X118161794Y-72312683D01*
X118161794Y-72268963D01*
X118161794Y-72225244D01*
X118161794Y-72181524D01*
X118161794Y-72137805D01*
X118161794Y-72094085D01*
X118161794Y-72050366D01*
X118205513Y-72050366D01*
X118249232Y-72050366D01*
X118249232Y-72094085D01*
X118249232Y-72137805D01*
X118249232Y-72181524D01*
X118249232Y-72225244D01*
X118249232Y-72268963D01*
X118249232Y-72312683D01*
X118249232Y-72356402D01*
X118249232Y-72400122D01*
X118249232Y-72443841D01*
X118205513Y-72443841D01*
G37*
G36*
X111581647Y-73283841D02*
G01*
X111537928Y-73283841D01*
X111494208Y-73283841D01*
X111450489Y-73283841D01*
X111406770Y-73283841D01*
X111406770Y-73240122D01*
X111406770Y-73196402D01*
X111450489Y-73196402D01*
X111494208Y-73196402D01*
X111537928Y-73196402D01*
X111581647Y-73196402D01*
X111625367Y-73196402D01*
X111625367Y-73240122D01*
X111625367Y-73283841D01*
X111581647Y-73283841D01*
G37*
G36*
X111931403Y-73415000D02*
G01*
X111887684Y-73415000D01*
X111843964Y-73415000D01*
X111800245Y-73415000D01*
X111756525Y-73415000D01*
X111712806Y-73415000D01*
X111669086Y-73415000D01*
X111669086Y-73371280D01*
X111669086Y-73327561D01*
X111712806Y-73327561D01*
X111756525Y-73327561D01*
X111800245Y-73327561D01*
X111843964Y-73327561D01*
X111887684Y-73327561D01*
X111931403Y-73327561D01*
X111975123Y-73327561D01*
X111975123Y-73371280D01*
X111975123Y-73415000D01*
X111931403Y-73415000D01*
G37*
G36*
X111975123Y-73327561D02*
G01*
X111975123Y-73283841D01*
X111975123Y-73240122D01*
X111975123Y-73196402D01*
X111975123Y-73152683D01*
X112018842Y-73152683D01*
X112062562Y-73152683D01*
X112062562Y-73196402D01*
X112062562Y-73240122D01*
X112062562Y-73283841D01*
X112062562Y-73327561D01*
X112018842Y-73327561D01*
X111975123Y-73327561D01*
G37*
G36*
X111975123Y-73152683D02*
G01*
X111931403Y-73152683D01*
X111887684Y-73152683D01*
X111843964Y-73152683D01*
X111800245Y-73152683D01*
X111756525Y-73152683D01*
X111756525Y-73108963D01*
X111756525Y-73065244D01*
X111800245Y-73065244D01*
X111843964Y-73065244D01*
X111887684Y-73065244D01*
X111931403Y-73065244D01*
X111975123Y-73065244D01*
X111975123Y-73108963D01*
X111975123Y-73152683D01*
G37*
G36*
X111756525Y-73065244D02*
G01*
X111712806Y-73065244D01*
X111669086Y-73065244D01*
X111669086Y-73021524D01*
X111669086Y-72977805D01*
X111712806Y-72977805D01*
X111756525Y-72977805D01*
X111756525Y-73021524D01*
X111756525Y-73065244D01*
G37*
G36*
X112018842Y-72977805D02*
G01*
X111975123Y-72977805D01*
X111931403Y-72977805D01*
X111887684Y-72977805D01*
X111843964Y-72977805D01*
X111800245Y-72977805D01*
X111756525Y-72977805D01*
X111756525Y-72934085D01*
X111756525Y-72890366D01*
X111800245Y-72890366D01*
X111843964Y-72890366D01*
X111887684Y-72890366D01*
X111931403Y-72890366D01*
X111975123Y-72890366D01*
X112018842Y-72890366D01*
X112062562Y-72890366D01*
X112062562Y-72934085D01*
X112062562Y-72977805D01*
X112018842Y-72977805D01*
G37*
G36*
X112368598Y-73415000D02*
G01*
X112324878Y-73415000D01*
X112281159Y-73415000D01*
X112237439Y-73415000D01*
X112193720Y-73415000D01*
X112193720Y-73371280D01*
X112193720Y-73327561D01*
X112237439Y-73327561D01*
X112281159Y-73327561D01*
X112324878Y-73327561D01*
X112368598Y-73327561D01*
X112412317Y-73327561D01*
X112412317Y-73371280D01*
X112412317Y-73415000D01*
X112368598Y-73415000D01*
G37*
G36*
X112412317Y-73327561D02*
G01*
X112412317Y-73283841D01*
X112412317Y-73240122D01*
X112456037Y-73240122D01*
X112499756Y-73240122D01*
X112499756Y-73283841D01*
X112499756Y-73327561D01*
X112456037Y-73327561D01*
X112412317Y-73327561D01*
G37*
G36*
X112193720Y-73327561D02*
G01*
X112150000Y-73327561D01*
X112106281Y-73327561D01*
X112106281Y-73283841D01*
X112106281Y-73240122D01*
X112106281Y-73196402D01*
X112106281Y-73152683D01*
X112106281Y-73108963D01*
X112150000Y-73108963D01*
X112193720Y-73108963D01*
X112193720Y-73152683D01*
X112193720Y-73196402D01*
X112193720Y-73240122D01*
X112193720Y-73283841D01*
X112193720Y-73327561D01*
G37*
G36*
X112456037Y-73196402D02*
G01*
X112412317Y-73196402D01*
X112412317Y-73152683D01*
X112412317Y-73108963D01*
X112456037Y-73108963D01*
X112499756Y-73108963D01*
X112499756Y-73152683D01*
X112499756Y-73196402D01*
X112456037Y-73196402D01*
G37*
G36*
X112412317Y-73108963D02*
G01*
X112368598Y-73108963D01*
X112324878Y-73108963D01*
X112281159Y-73108963D01*
X112237439Y-73108963D01*
X112193720Y-73108963D01*
X112193720Y-73065244D01*
X112193720Y-73021524D01*
X112237439Y-73021524D01*
X112281159Y-73021524D01*
X112324878Y-73021524D01*
X112368598Y-73021524D01*
X112412317Y-73021524D01*
X112412317Y-73065244D01*
X112412317Y-73108963D01*
G37*
G36*
X112762073Y-73415000D02*
G01*
X112718354Y-73415000D01*
X112674634Y-73415000D01*
X112630915Y-73415000D01*
X112630915Y-73371280D01*
X112630915Y-73327561D01*
X112674634Y-73327561D01*
X112718354Y-73327561D01*
X112762073Y-73327561D01*
X112805793Y-73327561D01*
X112805793Y-73371280D01*
X112805793Y-73415000D01*
X112762073Y-73415000D01*
G37*
G36*
X112805793Y-73327561D02*
G01*
X112805793Y-73283841D01*
X112805793Y-73240122D01*
X112805793Y-73196402D01*
X112805793Y-73152683D01*
X112805793Y-73108963D01*
X112849512Y-73108963D01*
X112893231Y-73108963D01*
X112893231Y-73152683D01*
X112893231Y-73196402D01*
X112893231Y-73240122D01*
X112893231Y-73283841D01*
X112893231Y-73327561D01*
X112849512Y-73327561D01*
X112805793Y-73327561D01*
G37*
G36*
X112630915Y-73327561D02*
G01*
X112587195Y-73327561D01*
X112543476Y-73327561D01*
X112543476Y-73283841D01*
X112543476Y-73240122D01*
X112543476Y-73196402D01*
X112543476Y-73152683D01*
X112543476Y-73108963D01*
X112587195Y-73108963D01*
X112630915Y-73108963D01*
X112630915Y-73152683D01*
X112630915Y-73196402D01*
X112630915Y-73240122D01*
X112630915Y-73283841D01*
X112630915Y-73327561D01*
G37*
G36*
X112805793Y-73108963D02*
G01*
X112762073Y-73108963D01*
X112718354Y-73108963D01*
X112674634Y-73108963D01*
X112630915Y-73108963D01*
X112630915Y-73065244D01*
X112630915Y-73021524D01*
X112674634Y-73021524D01*
X112718354Y-73021524D01*
X112762073Y-73021524D01*
X112805793Y-73021524D01*
X112805793Y-73065244D01*
X112805793Y-73108963D01*
G37*
G36*
X113243231Y-73415000D02*
G01*
X113199512Y-73415000D01*
X113155793Y-73415000D01*
X113112073Y-73415000D01*
X113068354Y-73415000D01*
X113024634Y-73415000D01*
X113024634Y-73371280D01*
X113024634Y-73327561D01*
X113068354Y-73327561D01*
X113112073Y-73327561D01*
X113155793Y-73327561D01*
X113199512Y-73327561D01*
X113199512Y-73283841D01*
X113199512Y-73240122D01*
X113199512Y-73196402D01*
X113199512Y-73152683D01*
X113199512Y-73108963D01*
X113199512Y-73065244D01*
X113199512Y-73021524D01*
X113243231Y-73021524D01*
X113286951Y-73021524D01*
X113286951Y-73065244D01*
X113286951Y-73108963D01*
X113286951Y-73152683D01*
X113286951Y-73196402D01*
X113286951Y-73240122D01*
X113286951Y-73283841D01*
X113286951Y-73327561D01*
X113286951Y-73371280D01*
X113286951Y-73415000D01*
X113243231Y-73415000D01*
G37*
G36*
X113024634Y-73327561D02*
G01*
X112980915Y-73327561D01*
X112937195Y-73327561D01*
X112937195Y-73283841D01*
X112937195Y-73240122D01*
X112937195Y-73196402D01*
X112937195Y-73152683D01*
X112937195Y-73108963D01*
X112937195Y-73065244D01*
X112937195Y-73021524D01*
X112980915Y-73021524D01*
X113024634Y-73021524D01*
X113024634Y-73065244D01*
X113024634Y-73108963D01*
X113024634Y-73152683D01*
X113024634Y-73196402D01*
X113024634Y-73240122D01*
X113024634Y-73283841D01*
X113024634Y-73327561D01*
G37*
G36*
X113505793Y-73415000D02*
G01*
X113462073Y-73415000D01*
X113462073Y-73371280D01*
X113462073Y-73327561D01*
X113505793Y-73327561D01*
X113549512Y-73327561D01*
X113549512Y-73371280D01*
X113549512Y-73415000D01*
X113505793Y-73415000D01*
G37*
G36*
X113462073Y-73327561D02*
G01*
X113418354Y-73327561D01*
X113374634Y-73327561D01*
X113374634Y-73283841D01*
X113374634Y-73240122D01*
X113374634Y-73196402D01*
X113374634Y-73152683D01*
X113374634Y-73108963D01*
X113330915Y-73108963D01*
X113330915Y-73065244D01*
X113330915Y-73021524D01*
X113374634Y-73021524D01*
X113374634Y-72977805D01*
X113374634Y-72934085D01*
X113418354Y-72934085D01*
X113462073Y-72934085D01*
X113462073Y-72977805D01*
X113462073Y-73021524D01*
X113505793Y-73021524D01*
X113505793Y-73065244D01*
X113505793Y-73108963D01*
X113462073Y-73108963D01*
X113462073Y-73152683D01*
X113462073Y-73196402D01*
X113462073Y-73240122D01*
X113462073Y-73283841D01*
X113462073Y-73327561D01*
G37*
D11*
X121209095Y-73711685D02*
X121193768Y-73756250D01*
X121223432Y-73674149D02*
X121209095Y-73711685D01*
X121236393Y-73643013D02*
X121223432Y-73674149D01*
X121236393Y-73643013D02*
G75*
G02*
X121240953Y-73640052I4532J-1987D01*
G01*
X121240953Y-73640002D02*
G75*
G02*
X121250410Y-73641563I-28J-29598D01*
G01*
X121554954Y-73744379D02*
X121250412Y-73641556D01*
X121823521Y-73835415D02*
X121554954Y-73744379D01*
X121973274Y-73887316D02*
X121823521Y-73835415D01*
X121973274Y-73887316D02*
G75*
G02*
X121981701Y-73911291I-5449J-15384D01*
G01*
X121909776Y-74021327D02*
X121981714Y-73911299D01*
X121822446Y-74137665D02*
X121909776Y-74021327D01*
X121822446Y-74137665D02*
G75*
G02*
X121733828Y-74234829I-928521J757865D01*
G01*
X121666094Y-74296709D02*
X121733831Y-74234832D01*
X121666094Y-74296709D02*
G75*
G02*
X121604419Y-74342919I-409669J482509D01*
G01*
X121604418Y-74342918D02*
G75*
G02*
X121526658Y-74389098I-538393J818018D01*
G01*
X121399825Y-74454670D02*
X121526659Y-74389100D01*
X121219342Y-74538024D02*
X121399825Y-74454670D01*
X121048961Y-74602018D02*
X121219342Y-74538024D01*
X121048961Y-74602018D02*
G75*
G02*
X120888773Y-74646753I-571736J1738118D01*
G01*
X120888774Y-74646756D02*
G75*
G02*
X120739034Y-74672038I-286649J1241656D01*
G01*
X120603193Y-74680898D02*
X120739034Y-74672037D01*
X120603193Y-74680898D02*
G75*
G02*
X120512443Y-74670836I-7768J344198D01*
G01*
X120512441Y-74670845D02*
G75*
G02*
X120466454Y-74643425I22284J89645D01*
G01*
X120466446Y-74643432D02*
G75*
G02*
X120458023Y-74602291I30279J27632D01*
G01*
X120458025Y-74602292D02*
G75*
G02*
X120495658Y-74542367I149500J-52108D01*
G01*
X120495655Y-74542364D02*
G75*
G02*
X120570336Y-74480309I375670J-376136D01*
G01*
X120570338Y-74480312D02*
G75*
G02*
X120673481Y-74420569I439687J-640188D01*
G01*
X120673479Y-74420566D02*
G75*
G02*
X120799825Y-74367528I584946J-1216434D01*
G01*
X120848072Y-74347560D02*
G75*
G02*
X120799825Y-74367529I-242347J517260D01*
G01*
X120883264Y-74326837D02*
G75*
G02*
X120848072Y-74347561I-127539J176337D01*
G01*
X120913658Y-74300095D02*
G75*
G02*
X120883269Y-74326844I-155033J145495D01*
G01*
X120946740Y-74261258D02*
G75*
G02*
X120913656Y-74300093I-418315J322858D01*
G01*
X121004479Y-74173262D02*
G75*
G02*
X120946743Y-74261260I-602654J332462D01*
G01*
X121076578Y-74034618D02*
X121004479Y-74173262D01*
X121145088Y-73885073D02*
X121076578Y-74034618D01*
X121193768Y-73756250D02*
X121145088Y-73885073D01*
X122848282Y-72599489D02*
X122749825Y-72613092D01*
X122932812Y-72587797D02*
X122848282Y-72599489D01*
X123006986Y-72577530D02*
X122932812Y-72587797D01*
X123014675Y-72576437D02*
X123006986Y-72577530D01*
X123014675Y-72576437D02*
G75*
G02*
X123028308Y-72584106I1850J-12663D01*
G01*
X123071398Y-72688284D02*
X123028297Y-72584111D01*
X123109822Y-72787790D02*
X123071398Y-72688284D01*
X123109822Y-72787790D02*
G75*
G02*
X123117314Y-72829943I-114597J-42110D01*
G01*
X123118480Y-72844381D02*
G75*
G02*
X123117318Y-72829943I89645J14481D01*
G01*
X123122037Y-72861368D02*
G75*
G02*
X123118477Y-72844382I179888J46568D01*
G01*
X123127219Y-72878138D02*
G75*
G02*
X123122039Y-72861367I177606J64038D01*
G01*
X123133366Y-72891945D02*
G75*
G02*
X123127215Y-72878139I91959J49245D01*
G01*
X123133366Y-72891945D02*
G75*
G02*
X123139841Y-72906952I-86341J-46155D01*
G01*
X123139849Y-72906949D02*
G75*
G02*
X123141857Y-72919633I-36324J-12251D01*
G01*
X123141841Y-72919633D02*
G75*
G02*
X123139426Y-72931005I-30016J433D01*
G01*
X123139442Y-72931012D02*
G75*
G02*
X123132726Y-72942004I-41017J17512D01*
G01*
X123132732Y-72942009D02*
G75*
G02*
X123118655Y-72954272I-44707J37109D01*
G01*
X123046698Y-72998497D02*
X123118655Y-72954272D01*
X122961339Y-73049461D02*
X123046698Y-72998497D01*
X122863264Y-73106093D02*
X122961339Y-73049461D01*
X122724883Y-73187527D02*
X122863264Y-73106093D01*
X122623524Y-73253698D02*
X122724883Y-73187527D01*
X122531739Y-73322862D02*
X122623524Y-73253698D01*
X122425148Y-73412754D02*
X122531739Y-73322862D01*
X122348711Y-73482371D02*
X122425148Y-73412754D01*
X122272293Y-73557024D02*
X122348711Y-73482371D01*
X122206127Y-73626118D02*
X122272293Y-73557024D01*
X122165030Y-73675456D02*
G75*
G02*
X122206129Y-73626120I490295J-366644D01*
G01*
X122129739Y-73720501D02*
X122165030Y-73675456D01*
X122129739Y-73720501D02*
G75*
G02*
X122102780Y-73749264I-231114J189601D01*
G01*
X122102776Y-73749259D02*
G75*
G02*
X122081921Y-73765258I-92251J98659D01*
G01*
X122081920Y-73765256D02*
G75*
G02*
X122067534Y-73766565I-8495J13656D01*
G01*
X122050261Y-73760236D02*
X122067530Y-73766576D01*
X121941635Y-73723101D02*
X122050261Y-73760236D01*
X121815808Y-73680245D02*
X121941635Y-73723101D01*
X121670834Y-73631091D02*
X121815808Y-73680245D01*
X121526991Y-73582102D02*
X121670834Y-73631091D01*
X121404809Y-73539805D02*
X121526991Y-73582102D01*
X121296403Y-73501848D02*
X121404809Y-73539805D01*
X121296403Y-73501848D02*
G75*
G02*
X121290410Y-73498057I5322J15048D01*
G01*
X121290396Y-73498071D02*
G75*
G02*
X121289175Y-73492398I3729J3771D01*
G01*
X121305648Y-73450318D02*
X121289194Y-73492405D01*
X121325988Y-73401406D02*
X121305648Y-73450318D01*
X121351371Y-73344562D02*
X121325988Y-73401406D01*
X121380291Y-73279094D02*
X121351371Y-73344562D01*
X121411484Y-73203775D02*
X121380291Y-73279094D01*
X121440239Y-73130448D02*
X121411484Y-73203775D01*
X121461334Y-73071801D02*
X121440239Y-73130448D01*
X121508159Y-72950131D02*
X121461334Y-73071801D01*
X121508159Y-72950131D02*
G75*
G02*
X121559045Y-72850840I786266J-340269D01*
G01*
X121559045Y-72850840D02*
G75*
G02*
X121608333Y-72780387I514480J-307460D01*
G01*
X121608339Y-72780392D02*
G75*
G02*
X121647708Y-72760009I43086J-35008D01*
G01*
X121697768Y-72755019D02*
X121647708Y-72760010D01*
X122023994Y-72711659D02*
X121697768Y-72755019D01*
X122379919Y-72663760D02*
X122023994Y-72711659D01*
X122749825Y-72613092D02*
X122379919Y-72663760D01*
X123429270Y-71128055D02*
G75*
G02*
X123439404Y-71121537I20055J-20045D01*
G01*
X123439403Y-71121534D02*
G75*
G02*
X123450574Y-71120446I7622J-20366D01*
G01*
X123450574Y-71120443D02*
G75*
G02*
X123459025Y-71124961I-2349J-14557D01*
G01*
X123458995Y-71124989D02*
G75*
G02*
X123462310Y-71133516I-9270J-8511D01*
G01*
X123462325Y-71133516D02*
G75*
G02*
X123456940Y-71159652I-66200J16D01*
G01*
X123416498Y-71251796D02*
X123456945Y-71159654D01*
X123371700Y-71347812D02*
X123416498Y-71251796D01*
X123329005Y-71431037D02*
X123371700Y-71347812D01*
X123329005Y-71431037D02*
G75*
G02*
X123249971Y-71552672I-797880J431937D01*
G01*
X123249974Y-71552674D02*
G75*
G02*
X123172643Y-71615717I-172849J133074D01*
G01*
X123172638Y-71615706D02*
G75*
G02*
X123041144Y-71665535I-339013J696206D01*
G01*
X122599825Y-71786084D02*
X123041143Y-71665532D01*
X122372599Y-71846957D02*
X122599825Y-71786084D01*
X122174327Y-71899925D02*
X122372599Y-71846957D01*
X122003993Y-71945323D02*
X122174327Y-71899925D01*
X121972812Y-71953307D02*
X122003993Y-71945323D01*
X121930799Y-71963635D02*
X121972812Y-71953307D01*
X121935312Y-71870163D02*
X121930799Y-71963635D01*
X121939825Y-71776691D02*
X121935312Y-71870163D01*
X122680520Y-71456401D02*
X121939825Y-71776691D01*
X122965085Y-71333020D02*
X122680520Y-71456401D01*
X123206002Y-71227829D02*
X122965085Y-71333020D01*
X123421797Y-71133162D02*
X123206002Y-71227829D01*
X123429270Y-71128055D02*
G75*
G02*
X123421797Y-71133163I-17345J17355D01*
G01*
X123012552Y-71016708D02*
X122725858Y-71137650D01*
X123257332Y-70914653D02*
X123012552Y-71016708D01*
X123474646Y-70824808D02*
X123257332Y-70914653D01*
X123474646Y-70824808D02*
G75*
G02*
X123490413Y-70821212I18579J-45092D01*
G01*
X123490412Y-70821201D02*
G75*
G02*
X123500433Y-70821533I3213J-54399D01*
G01*
X123500432Y-70821541D02*
G75*
G02*
X123503403Y-70824702I-407J-3359D01*
G01*
X123503361Y-70824704D02*
G75*
G02*
X123501602Y-70830645I-9236J-496D01*
G01*
X123491505Y-70843488D02*
X123501574Y-70830625D01*
X123482762Y-70857682D02*
G75*
G02*
X123491505Y-70843488I54563J-23818D01*
G01*
X123479561Y-70872233D02*
G75*
G02*
X123482773Y-70857687I38464J-867D01*
G01*
X123481723Y-70890309D02*
G75*
G02*
X123479549Y-70872233I62702J16709D01*
G01*
X123489927Y-70916517D02*
G75*
G02*
X123481720Y-70890310I296098J107117D01*
G01*
X123489927Y-70916517D02*
G75*
G02*
X123497817Y-70943945I-200702J-72583D01*
G01*
X123497817Y-70943945D02*
G75*
G02*
X123500244Y-70967803I-105192J-22755D01*
G01*
X123500248Y-70967803D02*
G75*
G02*
X123497396Y-70992821I-121723J1203D01*
G01*
X123497387Y-70992819D02*
G75*
G02*
X123488829Y-71024082I-319362J70619D01*
G01*
X123488832Y-71024083D02*
G75*
G02*
X123456449Y-71071216I-96607J31683D01*
G01*
X123456464Y-71071235D02*
G75*
G02*
X123390246Y-71113425I-212739J260835D01*
G01*
X123242032Y-71181320D02*
X123390247Y-71113427D01*
X122498575Y-71502919D02*
X123242032Y-71181320D01*
X121932325Y-71747570D02*
X122498575Y-71502919D01*
X121932325Y-71678854D02*
X121932325Y-71747570D01*
X121932325Y-71678854D02*
G75*
G02*
X121934087Y-71646901I291400J-46D01*
G01*
X121939605Y-71607228D02*
X121934083Y-71646901D01*
X121947612Y-71566630D02*
X121939605Y-71607228D01*
X121957108Y-71531517D02*
X121947612Y-71566630D01*
X121981890Y-71452898D02*
X121957108Y-71531517D01*
X122725858Y-71137650D02*
X121981890Y-71452898D01*
X123550028Y-70340066D02*
X123406134Y-70428289D01*
X123605991Y-70308967D02*
X123550028Y-70340066D01*
X123605991Y-70308967D02*
G75*
G02*
X123632506Y-70300540I39334J-77833D01*
G01*
X123632507Y-70300549D02*
G75*
G02*
X123642263Y-70309019I1218J-8451D01*
G01*
X123642325Y-70309019D02*
G75*
G02*
X123637595Y-70352716I-204400J19D01*
G01*
X123613202Y-70459182D02*
X123637601Y-70352717D01*
X123585081Y-70569645D02*
X123613202Y-70459182D01*
X123559123Y-70656234D02*
X123585081Y-70569645D01*
X123521537Y-70769967D02*
X123559123Y-70656234D01*
X122738774Y-71101202D02*
X123521537Y-70769967D01*
X121956010Y-71432436D02*
X122738774Y-71101202D01*
X121928745Y-71512468D02*
X121956010Y-71432436D01*
X121914188Y-71571830D02*
G75*
G02*
X121928740Y-71512466I344037J-52870D01*
G01*
X121906242Y-71646913D02*
G75*
G02*
X121914189Y-71571830I799783J-46687D01*
G01*
X121902348Y-71762749D02*
X121906242Y-71646913D01*
X121901326Y-71982308D02*
X121902348Y-71762749D01*
X121902169Y-72153289D02*
X121901326Y-71982308D01*
X121905159Y-72274634D02*
X121902169Y-72153289D01*
X121909346Y-72367570D02*
X121905159Y-72274634D01*
X121916749Y-72377308D02*
G75*
G02*
X121909362Y-72367569I3476J10308D01*
G01*
X121923914Y-72372838D02*
G75*
G02*
X121916769Y-72377248I-5389J738D01*
G01*
X121928377Y-72331436D02*
X121923914Y-72372838D01*
X121931423Y-72271970D02*
X121928377Y-72331436D01*
X121932325Y-72186250D02*
X121931423Y-72271970D01*
X121932895Y-72110999D02*
X121932325Y-72186250D01*
X121934655Y-72047648D02*
X121932895Y-72110999D01*
X121937035Y-71993074D02*
X121934655Y-72047648D01*
X121937035Y-71993074D02*
G75*
G02*
X121940256Y-71990008I3190J-126D01*
G01*
X121953859Y-71988210D02*
G75*
G02*
X121940256Y-71990011I-13634J50710D01*
G01*
X122535088Y-71832537D02*
X121953859Y-71988210D01*
X123103278Y-71680271D02*
X122535088Y-71832537D01*
X123143575Y-71667666D02*
X123103278Y-71680271D01*
X123143575Y-71667666D02*
G75*
G02*
X123153969Y-71674079I2650J-7334D01*
G01*
X123153955Y-71674081D02*
G75*
G02*
X123148929Y-71692920I-26130J-3119D01*
G01*
X123148928Y-71692919D02*
G75*
G02*
X123107428Y-71742140I-434003J323819D01*
G01*
X123023575Y-71828535D02*
X123107432Y-71742144D01*
X122910189Y-71933696D02*
X123023575Y-71828535D01*
X122910189Y-71933696D02*
G75*
G02*
X122811269Y-72004468I-465764J546496D01*
G01*
X122811273Y-72004475D02*
G75*
G02*
X122706127Y-72054713I-329548J554575D01*
G01*
X122706131Y-72054723D02*
G75*
G02*
X122574277Y-72095594I-438406J1181223D01*
G01*
X122522237Y-72110186D02*
X122574276Y-72095589D01*
X122474745Y-72126751D02*
X122522237Y-72110186D01*
X122436306Y-72143111D02*
X122474745Y-72126751D01*
X122419136Y-72155761D02*
G75*
G02*
X122436307Y-72143113I39789J-36039D01*
G01*
X122407991Y-72172380D02*
G75*
G02*
X122419129Y-72155755I62634J-29920D01*
G01*
X122410297Y-72182835D02*
G75*
G02*
X122407954Y-72172363I5528J6735D01*
G01*
X122426694Y-72191635D02*
G75*
G02*
X122410300Y-72182831I13731J45235D01*
G01*
X122482035Y-72207743D02*
X122426694Y-72191635D01*
X122633781Y-72252018D02*
X122482035Y-72207743D01*
X122633781Y-72252018D02*
G75*
G02*
X122715303Y-72282559I-203056J-666082D01*
G01*
X122715303Y-72282558D02*
G75*
G02*
X122779708Y-72318426I-173078J-386542D01*
G01*
X122858575Y-72376342D02*
X122779708Y-72318426D01*
X122904911Y-72415475D02*
X122858575Y-72376342D01*
X122904911Y-72415475D02*
G75*
G02*
X122919103Y-72437563I-33186J-36925D01*
G01*
X122919123Y-72437557D02*
G75*
G02*
X122912396Y-72450389I-9798J-3043D01*
G01*
X122912419Y-72450463D02*
G75*
G02*
X122883256Y-72455009I-29194J91463D01*
G01*
X122855452Y-72456652D02*
G75*
G02*
X122883256Y-72455002I27773J-232948D01*
G01*
X122742663Y-72470318D02*
X122855452Y-72456652D01*
X122609731Y-72487168D02*
X122742663Y-72470318D01*
X122459506Y-72507148D02*
X122609731Y-72487168D01*
X122158371Y-72547823D02*
X122459506Y-72507148D01*
X121928310Y-72578541D02*
X122158371Y-72547823D01*
X121737695Y-72603747D02*
X121928310Y-72578541D01*
X121737695Y-72603747D02*
G75*
G02*
X121722325Y-72604779I-15770J119847D01*
G01*
X121722325Y-72604785D02*
G75*
G02*
X121719243Y-72601829I0J3085D01*
G01*
X121716255Y-72525686D02*
X121719236Y-72601829D01*
X121713741Y-72438749D02*
X121716255Y-72525686D01*
X121712193Y-72335475D02*
X121713741Y-72438749D01*
X121709322Y-72197490D02*
X121712193Y-72335475D01*
X121703423Y-72090911D02*
X121709322Y-72197490D01*
X121693595Y-71999767D02*
X121703423Y-72090911D01*
X121678679Y-71910832D02*
X121693595Y-71999767D01*
X121657247Y-71790037D02*
X121678679Y-71910832D01*
X121635262Y-71638580D02*
X121657247Y-71790037D01*
X121617302Y-71493843D02*
X121635262Y-71638580D01*
X121610953Y-71406103D02*
X121617302Y-71493843D01*
X121610953Y-71406103D02*
G75*
G02*
X121617309Y-71382497I42172J1303D01*
G01*
X121617311Y-71382498D02*
G75*
G02*
X121639190Y-71354276I148714J-92702D01*
G01*
X121639189Y-71354275D02*
G75*
G02*
X121679757Y-71316413I345036J-329025D01*
G01*
X121752325Y-71257833D02*
X121679756Y-71316412D01*
X121752325Y-71257833D02*
G75*
G02*
X121889724Y-71163460I808000J-1029167D01*
G01*
X122079463Y-71057637D02*
X121889726Y-71163463D01*
X122279199Y-70961130D02*
X122079463Y-71057637D01*
X122279199Y-70961130D02*
G75*
G02*
X122449825Y-70895191I719226J-1607370D01*
G01*
X122590754Y-70842699D02*
X122449825Y-70895190D01*
X122846785Y-70733383D02*
X122590754Y-70842699D01*
X123116105Y-70615060D02*
X122846785Y-70733383D01*
X123166134Y-70583190D02*
G75*
G02*
X123116106Y-70615063I-130409J149490D01*
G01*
X123166134Y-70583190D02*
G75*
G02*
X123184979Y-70568889I113891J-130510D01*
G01*
X123247487Y-70528222D02*
X123184983Y-70568894D01*
X123322362Y-70480507D02*
X123247487Y-70528222D01*
X123406134Y-70428289D02*
X123322362Y-70480507D01*
X122296511Y-69613267D02*
G75*
G02*
X122455400Y-69628436I-69786J-1570733D01*
G01*
X122066436Y-69607109D02*
X122296511Y-69613267D01*
X121836316Y-69609071D02*
X122066436Y-69607109D01*
X121677325Y-69621344D02*
G75*
G02*
X121836316Y-69609073I200000J-1555156D01*
G01*
X121228394Y-69716937D02*
G75*
G02*
X121677325Y-69621348I806831J-2687263D01*
G01*
X120795691Y-69885184D02*
G75*
G02*
X121228394Y-69716937I1276934J-2643516D01*
G01*
X120393997Y-70119983D02*
G75*
G02*
X120795688Y-69885177I1684428J-2420617D01*
G01*
X120037310Y-70413538D02*
G75*
G02*
X120393996Y-70119981I1993615J-2058862D01*
G01*
X119855508Y-70602944D02*
X120037310Y-70413538D01*
X119704784Y-70789228D02*
G75*
G02*
X119855508Y-70602944I2011841J-1473672D01*
G01*
X119573016Y-70988610D02*
G75*
G02*
X119704783Y-70789227I2131609J-1265490D01*
G01*
X119448406Y-71217500D02*
X119573016Y-70988610D01*
X119201772Y-71936313D02*
G75*
G02*
X119448397Y-71217496I2855753J-578087D01*
G01*
X119150549Y-72692036D02*
G75*
G02*
X119201776Y-71936314I2870276J185036D01*
G01*
X119298366Y-73434407D02*
G75*
G02*
X119150550Y-72692036I2718229J927137D01*
G01*
X119635154Y-74114093D02*
G75*
G02*
X119298366Y-73434407I2404291J1614623D01*
G01*
X119809627Y-74350585D02*
G75*
G02*
X119635155Y-74114092I2584198J2089085D01*
G01*
X119994859Y-74556457D02*
G75*
G02*
X119809625Y-74350586I1854266J1854657D01*
G01*
X120200999Y-74741882D02*
G75*
G02*
X119994863Y-74556453I1652726J2044582D01*
G01*
X120438232Y-74917007D02*
G75*
G02*
X120200999Y-74741882I1875293J2788607D01*
G01*
X121117145Y-75253812D02*
G75*
G02*
X120438233Y-74917006I933780J2734912D01*
G01*
X121858978Y-75401706D02*
G75*
G02*
X121117147Y-75253805I185047J2862506D01*
G01*
X122614833Y-75350640D02*
G75*
G02*
X121858978Y-75401702I-570208J2820740D01*
G01*
X123334825Y-75104236D02*
G75*
G02*
X122614833Y-75350642I-1300400J2624636D01*
G01*
X123562686Y-74980387D02*
X123334825Y-75104236D01*
X123761994Y-74848637D02*
G75*
G02*
X123562684Y-74980384I-1460169J1992337D01*
G01*
X123948746Y-74697464D02*
G75*
G02*
X123761998Y-74848642I-1665521J1866464D01*
G01*
X124138787Y-74515015D02*
X123948746Y-74697464D01*
X124445918Y-74142813D02*
G75*
G02*
X124138784Y-74515012I-2492693J1744113D01*
G01*
X124676724Y-73740710D02*
G75*
G02*
X124445925Y-74142818I-2357599J1085910D01*
G01*
X124840224Y-73287643D02*
G75*
G02*
X124676727Y-73740712I-2730599J729343D01*
G01*
X124946027Y-72762500D02*
G75*
G02*
X124840218Y-73287641I-4268902J586900D01*
G01*
X124960534Y-72481934D02*
G75*
G02*
X124946020Y-72762499I-1654509J-55066D01*
G01*
X124932342Y-72150645D02*
G75*
G02*
X124960538Y-72481934I-3193617J-438655D01*
G01*
X124867795Y-71808810D02*
G75*
G02*
X124932343Y-72150645I-3373870J-814090D01*
G01*
X124771939Y-71495000D02*
G75*
G02*
X124867797Y-71808809I-2577214J-958800D01*
G01*
X124406161Y-70809180D02*
G75*
G02*
X124771929Y-71495004I-2364536J-1701520D01*
G01*
X123872509Y-70245641D02*
G75*
G02*
X124406162Y-70809180I-1817184J-2255259D01*
G01*
X123207096Y-69842987D02*
G75*
G02*
X123872503Y-70245648I-1159971J-2668013D01*
G01*
X122455400Y-69628436D02*
G75*
G02*
X123207092Y-69842996I-431675J-2936364D01*
G01*
X121797325Y-69448493D02*
G75*
G02*
X121895884Y-69441201I87200J-508907D01*
G01*
X122145742Y-69448795D02*
X121895884Y-69441196D01*
X122393595Y-69461132D02*
X122145742Y-69448795D01*
X122393595Y-69461132D02*
G75*
G02*
X122532116Y-69477068I-78270J-1290368D01*
G01*
X122532116Y-69477068D02*
G75*
G02*
X122995248Y-69590137I-563691J-3313932D01*
G01*
X122995248Y-69590137D02*
G75*
G02*
X123425111Y-69765452I-923923J-2880063D01*
G01*
X123425113Y-69765448D02*
G75*
G02*
X123820358Y-70003139I-1335288J-2667852D01*
G01*
X123820359Y-70003137D02*
G75*
G02*
X124180370Y-70302026I-1832634J-2573663D01*
G01*
X124180366Y-70302031D02*
G75*
G02*
X124503530Y-70668073I-2106441J-2185369D01*
G01*
X124503525Y-70668077D02*
G75*
G02*
X124761977Y-71079426I-2381100J-1782923D01*
G01*
X124761980Y-71079425D02*
G75*
G02*
X124953474Y-71533857I-2723855J-1415375D01*
G01*
X124953474Y-71533857D02*
G75*
G02*
X125077306Y-72028143I-3320949J-1094643D01*
G01*
X125077302Y-72028144D02*
G75*
G02*
X125098386Y-72221265I-1500777J-261556D01*
G01*
X125104650Y-72500000D02*
X125098385Y-72221265D01*
X125098385Y-72778735D02*
X125104650Y-72500000D01*
X125098385Y-72778735D02*
G75*
G02*
X125077301Y-72971856I-1521860J68435D01*
G01*
X125077302Y-72971856D02*
G75*
G02*
X124953470Y-73466142I-3444777J600356D01*
G01*
X124953474Y-73466143D02*
G75*
G02*
X124761980Y-73920575I-2915349J960943D01*
G01*
X124761980Y-73920575D02*
G75*
G02*
X124503527Y-74331925I-2639555J1371575D01*
G01*
X124503525Y-74331923D02*
G75*
G02*
X124180362Y-74697964I-2429600J1819323D01*
G01*
X124180366Y-74697969D02*
G75*
G02*
X123819877Y-74997477I-2206841J2289469D01*
G01*
X123819878Y-74997479D02*
G75*
G02*
X123425997Y-75234288I-1708153J2395179D01*
G01*
X123425997Y-75234288D02*
G75*
G02*
X122995081Y-75409396I-1348172J2699888D01*
G01*
X122995081Y-75409397D02*
G75*
G02*
X122524182Y-75524980I-1082156J3391797D01*
G01*
X122524181Y-75524977D02*
G75*
G02*
X122331060Y-75546061I-261556J1500777D01*
G01*
X122052325Y-75552325D02*
X122331060Y-75546060D01*
X121773590Y-75546060D02*
X122052325Y-75552325D01*
X121773590Y-75546060D02*
G75*
G02*
X121580469Y-75524976I68435J1521860D01*
G01*
X121580469Y-75524977D02*
G75*
G02*
X121109570Y-75409394I611256J3507377D01*
G01*
X121109569Y-75409397D02*
G75*
G02*
X120678653Y-75234288I917256J2874997D01*
G01*
X120678653Y-75234288D02*
G75*
G02*
X120284772Y-74997479I1314272J2631988D01*
G01*
X120284772Y-74997479D02*
G75*
G02*
X119924282Y-74697971I1846353J2588979D01*
G01*
X119924284Y-74697969D02*
G75*
G02*
X119601120Y-74331927I2106441J2185369D01*
G01*
X119601125Y-74331923D02*
G75*
G02*
X119342673Y-73920574I2381100J1782923D01*
G01*
X119342670Y-73920575D02*
G75*
G02*
X119151176Y-73466143I2723855J1415375D01*
G01*
X119151176Y-73466143D02*
G75*
G02*
X119027348Y-72971856I3320899J1094603D01*
G01*
X119027348Y-72971856D02*
G75*
G02*
X119006264Y-72778735I1500777J261556D01*
G01*
X119000000Y-72500000D02*
X119006265Y-72778735D01*
X119006265Y-72221265D02*
X119000000Y-72500000D01*
X119006265Y-72221265D02*
G75*
G02*
X119027349Y-72028144I1521860J-68435D01*
G01*
X119027348Y-72028144D02*
G75*
G02*
X119151180Y-71533858I3444777J-600356D01*
G01*
X119151176Y-71533857D02*
G75*
G02*
X119342670Y-71079425I2915349J-960943D01*
G01*
X119342670Y-71079425D02*
G75*
G02*
X119601123Y-70668075I2639555J-1371575D01*
G01*
X119601125Y-70668077D02*
G75*
G02*
X119924288Y-70302036I2429600J-1819323D01*
G01*
X119924284Y-70302031D02*
G75*
G02*
X120298936Y-69994175I2127141J-2206769D01*
G01*
X120298935Y-69994173D02*
G75*
G02*
X120720477Y-69746364I1811890J-2599727D01*
G01*
X120720480Y-69746370D02*
G75*
G02*
X121169226Y-69569247I1353545J-2772230D01*
G01*
X121169227Y-69569249D02*
G75*
G02*
X121624826Y-69471750I787798J-2568051D01*
G01*
X121679261Y-69464832D02*
X121624825Y-69471746D01*
X121731184Y-69457974D02*
X121679261Y-69464832D01*
X121775173Y-69451937D02*
X121731184Y-69457974D01*
X121797325Y-69448493D02*
X121775173Y-69451937D01*
D12*
G36*
X107524633Y-31830000D02*
G01*
X107437194Y-31830000D01*
X107349755Y-31830000D01*
X107262316Y-31830000D01*
X107174877Y-31830000D01*
X107087438Y-31830000D01*
X107000000Y-31830000D01*
X107000000Y-31742561D01*
X107000000Y-31655122D01*
X107087438Y-31655122D01*
X107174877Y-31655122D01*
X107262316Y-31655122D01*
X107349755Y-31655122D01*
X107437194Y-31655122D01*
X107524633Y-31655122D01*
X107612072Y-31655122D01*
X107612072Y-31742561D01*
X107612072Y-31830000D01*
X107524633Y-31830000D01*
G37*
G36*
X107612072Y-31655122D02*
G01*
X107612072Y-31567683D01*
X107612072Y-31480244D01*
X107612072Y-31392805D01*
X107612072Y-31305366D01*
X107699511Y-31305366D01*
X107786950Y-31305366D01*
X107786950Y-31392805D01*
X107786950Y-31480244D01*
X107786950Y-31567683D01*
X107786950Y-31655122D01*
X107699511Y-31655122D01*
X107612072Y-31655122D01*
G37*
G36*
X107612072Y-31305366D02*
G01*
X107524633Y-31305366D01*
X107437194Y-31305366D01*
X107349755Y-31305366D01*
X107262316Y-31305366D01*
X107174877Y-31305366D01*
X107174877Y-31217927D01*
X107174877Y-31130488D01*
X107262316Y-31130488D01*
X107349755Y-31130488D01*
X107437194Y-31130488D01*
X107524633Y-31130488D01*
X107612072Y-31130488D01*
X107612072Y-31217927D01*
X107612072Y-31305366D01*
G37*
G36*
X107174877Y-31130488D02*
G01*
X107087438Y-31130488D01*
X107000000Y-31130488D01*
X107000000Y-31043049D01*
X107000000Y-30955610D01*
X107087438Y-30955610D01*
X107174877Y-30955610D01*
X107174877Y-31043049D01*
X107174877Y-31130488D01*
G37*
G36*
X107699511Y-30955610D02*
G01*
X107612072Y-30955610D01*
X107524633Y-30955610D01*
X107437194Y-30955610D01*
X107349755Y-30955610D01*
X107262316Y-30955610D01*
X107174877Y-30955610D01*
X107174877Y-30868171D01*
X107174877Y-30780732D01*
X107262316Y-30780732D01*
X107349755Y-30780732D01*
X107437194Y-30780732D01*
X107524633Y-30780732D01*
X107612072Y-30780732D01*
X107699511Y-30780732D01*
X107786950Y-30780732D01*
X107786950Y-30868171D01*
X107786950Y-30955610D01*
X107699511Y-30955610D01*
G37*
G36*
X108399023Y-31830000D02*
G01*
X108311584Y-31830000D01*
X108224145Y-31830000D01*
X108136706Y-31830000D01*
X108049267Y-31830000D01*
X108049267Y-31742561D01*
X108049267Y-31655122D01*
X108136706Y-31655122D01*
X108224145Y-31655122D01*
X108311584Y-31655122D01*
X108399023Y-31655122D01*
X108486461Y-31655122D01*
X108486461Y-31742561D01*
X108486461Y-31830000D01*
X108399023Y-31830000D01*
G37*
G36*
X108486461Y-31655122D02*
G01*
X108486461Y-31567683D01*
X108486461Y-31480244D01*
X108573900Y-31480244D01*
X108661339Y-31480244D01*
X108661339Y-31567683D01*
X108661339Y-31655122D01*
X108573900Y-31655122D01*
X108486461Y-31655122D01*
G37*
G36*
X108049267Y-31655122D02*
G01*
X107961828Y-31655122D01*
X107874389Y-31655122D01*
X107874389Y-31567683D01*
X107874389Y-31480244D01*
X107874389Y-31392805D01*
X107874389Y-31305366D01*
X107874389Y-31217927D01*
X107961828Y-31217927D01*
X108049267Y-31217927D01*
X108049267Y-31305366D01*
X108049267Y-31392805D01*
X108049267Y-31480244D01*
X108049267Y-31567683D01*
X108049267Y-31655122D01*
G37*
G36*
X108573900Y-31392805D02*
G01*
X108486461Y-31392805D01*
X108486461Y-31305366D01*
X108486461Y-31217927D01*
X108573900Y-31217927D01*
X108661339Y-31217927D01*
X108661339Y-31305366D01*
X108661339Y-31392805D01*
X108573900Y-31392805D01*
G37*
G36*
X108486461Y-31217927D02*
G01*
X108399023Y-31217927D01*
X108311584Y-31217927D01*
X108224145Y-31217927D01*
X108136706Y-31217927D01*
X108049267Y-31217927D01*
X108049267Y-31130488D01*
X108049267Y-31043049D01*
X108136706Y-31043049D01*
X108224145Y-31043049D01*
X108311584Y-31043049D01*
X108399023Y-31043049D01*
X108486461Y-31043049D01*
X108486461Y-31130488D01*
X108486461Y-31217927D01*
G37*
G36*
X109273412Y-31305366D02*
G01*
X109273412Y-31217927D01*
X109185973Y-31217927D01*
X109098534Y-31217927D01*
X109011095Y-31217927D01*
X109011095Y-31305366D01*
X108923656Y-31305366D01*
X108923656Y-31392805D01*
X108923656Y-31480244D01*
X108923656Y-31567683D01*
X108923656Y-31655122D01*
X108923656Y-31742561D01*
X108923656Y-31830000D01*
X108836217Y-31830000D01*
X108748778Y-31830000D01*
X108748778Y-31742561D01*
X108748778Y-31655122D01*
X108748778Y-31567683D01*
X108748778Y-31480244D01*
X108748778Y-31392805D01*
X108748778Y-31305366D01*
X108748778Y-31217927D01*
X108748778Y-31130488D01*
X108748778Y-31043049D01*
X108836217Y-31043049D01*
X108923656Y-31043049D01*
X108923656Y-31130488D01*
X109011095Y-31130488D01*
X109011095Y-31043049D01*
X109098534Y-31043049D01*
X109185973Y-31043049D01*
X109273412Y-31043049D01*
X109273412Y-31130488D01*
X109360851Y-31130488D01*
X109360851Y-31217927D01*
X109360851Y-31305366D01*
X109273412Y-31305366D01*
G37*
G36*
X110147801Y-31655122D02*
G01*
X110147801Y-31742561D01*
X110147801Y-31830000D01*
X110060362Y-31830000D01*
X109972923Y-31830000D01*
X109885484Y-31830000D01*
X109798046Y-31830000D01*
X109710607Y-31830000D01*
X109623168Y-31830000D01*
X109623168Y-31742561D01*
X109623168Y-31655122D01*
X109710607Y-31655122D01*
X109798046Y-31655122D01*
X109885484Y-31655122D01*
X109972923Y-31655122D01*
X109972923Y-31567683D01*
X110060362Y-31567683D01*
X110147801Y-31567683D01*
X110147801Y-31655122D01*
G37*
G36*
X110147801Y-31130488D02*
G01*
X110147801Y-31217927D01*
X110147801Y-31305366D01*
X110147801Y-31392805D01*
X110060362Y-31392805D01*
X109972923Y-31392805D01*
X109972923Y-31480244D01*
X109885484Y-31480244D01*
X109798046Y-31480244D01*
X109710607Y-31480244D01*
X109623168Y-31480244D01*
X109623168Y-31567683D01*
X109623168Y-31655122D01*
X109535729Y-31655122D01*
X109448290Y-31655122D01*
X109448290Y-31567683D01*
X109448290Y-31480244D01*
X109448290Y-31392805D01*
X109448290Y-31305366D01*
X109623168Y-31305366D01*
X109710607Y-31305366D01*
X109798046Y-31305366D01*
X109885484Y-31305366D01*
X109972923Y-31305366D01*
X109972923Y-31217927D01*
X109885484Y-31217927D01*
X109798046Y-31217927D01*
X109710607Y-31217927D01*
X109623168Y-31217927D01*
X109623168Y-31305366D01*
X109448290Y-31305366D01*
X109448290Y-31217927D01*
X109535729Y-31217927D01*
X109623168Y-31217927D01*
X109623168Y-31130488D01*
X109623168Y-31043049D01*
X109710607Y-31043049D01*
X109798046Y-31043049D01*
X109885484Y-31043049D01*
X109972923Y-31043049D01*
X110060362Y-31043049D01*
X110147801Y-31043049D01*
X110147801Y-31130488D01*
G37*
G36*
X110935240Y-31655122D02*
G01*
X110935240Y-31742561D01*
X110935240Y-31830000D01*
X110847801Y-31830000D01*
X110760362Y-31830000D01*
X110672923Y-31830000D01*
X110585484Y-31830000D01*
X110498046Y-31830000D01*
X110410607Y-31830000D01*
X110410607Y-31742561D01*
X110410607Y-31655122D01*
X110498046Y-31655122D01*
X110585484Y-31655122D01*
X110672923Y-31655122D01*
X110760362Y-31655122D01*
X110760362Y-31567683D01*
X110847801Y-31567683D01*
X110935240Y-31567683D01*
X110935240Y-31655122D01*
G37*
G36*
X110935240Y-31130488D02*
G01*
X110935240Y-31217927D01*
X110935240Y-31305366D01*
X110935240Y-31392805D01*
X110847801Y-31392805D01*
X110760362Y-31392805D01*
X110760362Y-31480244D01*
X110672923Y-31480244D01*
X110585484Y-31480244D01*
X110498046Y-31480244D01*
X110410607Y-31480244D01*
X110410607Y-31567683D01*
X110410607Y-31655122D01*
X110323168Y-31655122D01*
X110235729Y-31655122D01*
X110235729Y-31567683D01*
X110235729Y-31480244D01*
X110235729Y-31392805D01*
X110235729Y-31305366D01*
X110410607Y-31305366D01*
X110498046Y-31305366D01*
X110585484Y-31305366D01*
X110672923Y-31305366D01*
X110760362Y-31305366D01*
X110760362Y-31217927D01*
X110672923Y-31217927D01*
X110585484Y-31217927D01*
X110498046Y-31217927D01*
X110410607Y-31217927D01*
X110410607Y-31305366D01*
X110235729Y-31305366D01*
X110235729Y-31217927D01*
X110323168Y-31217927D01*
X110410607Y-31217927D01*
X110410607Y-31130488D01*
X110410607Y-31043049D01*
X110498046Y-31043049D01*
X110585484Y-31043049D01*
X110672923Y-31043049D01*
X110760362Y-31043049D01*
X110847801Y-31043049D01*
X110935240Y-31043049D01*
X110935240Y-31130488D01*
G37*
G36*
X111722679Y-31830000D02*
G01*
X111635240Y-31830000D01*
X111635240Y-31742561D01*
X111635240Y-31655122D01*
X111635240Y-31567683D01*
X111635240Y-31480244D01*
X111635240Y-31392805D01*
X111635240Y-31305366D01*
X111635240Y-31217927D01*
X111722679Y-31217927D01*
X111810118Y-31217927D01*
X111810118Y-31305366D01*
X111810118Y-31392805D01*
X111810118Y-31480244D01*
X111810118Y-31567683D01*
X111810118Y-31655122D01*
X111810118Y-31742561D01*
X111810118Y-31830000D01*
X111722679Y-31830000D01*
G37*
G36*
X111110607Y-31830000D02*
G01*
X111023168Y-31830000D01*
X111023168Y-31742561D01*
X111023168Y-31655122D01*
X111023168Y-31567683D01*
X111023168Y-31480244D01*
X111023168Y-31392805D01*
X111023168Y-31305366D01*
X111023168Y-31217927D01*
X111023168Y-31130488D01*
X111023168Y-31043049D01*
X111110607Y-31043049D01*
X111198046Y-31043049D01*
X111285484Y-31043049D01*
X111372923Y-31043049D01*
X111460362Y-31043049D01*
X111547801Y-31043049D01*
X111635240Y-31043049D01*
X111635240Y-31130488D01*
X111635240Y-31217927D01*
X111547801Y-31217927D01*
X111460362Y-31217927D01*
X111372923Y-31217927D01*
X111285484Y-31217927D01*
X111198046Y-31217927D01*
X111198046Y-31305366D01*
X111198046Y-31392805D01*
X111198046Y-31480244D01*
X111198046Y-31567683D01*
X111198046Y-31655122D01*
X111198046Y-31742561D01*
X111198046Y-31830000D01*
X111110607Y-31830000D01*
G37*
G36*
X109786950Y-56330000D02*
G01*
X109699511Y-56330000D01*
X109699511Y-56242561D01*
X109699511Y-56155122D01*
X109699511Y-56067683D01*
X109699511Y-55980244D01*
X109786950Y-55980244D01*
X109874389Y-55980244D01*
X109874389Y-56067683D01*
X109874389Y-56155122D01*
X109874389Y-56242561D01*
X109874389Y-56330000D01*
X109786950Y-56330000D01*
G37*
G36*
X109087438Y-56330000D02*
G01*
X109000000Y-56330000D01*
X109000000Y-56242561D01*
X109000000Y-56155122D01*
X109000000Y-56067683D01*
X109000000Y-55980244D01*
X109087438Y-55980244D01*
X109174877Y-55980244D01*
X109174877Y-56067683D01*
X109174877Y-56155122D01*
X109174877Y-56242561D01*
X109174877Y-56330000D01*
X109087438Y-56330000D01*
G37*
G36*
X109699511Y-55980244D02*
G01*
X109612072Y-55980244D01*
X109524633Y-55980244D01*
X109524633Y-55892805D01*
X109524633Y-55805366D01*
X109612072Y-55805366D01*
X109699511Y-55805366D01*
X109699511Y-55892805D01*
X109699511Y-55980244D01*
G37*
G36*
X109174877Y-55980244D02*
G01*
X109174877Y-55892805D01*
X109174877Y-55805366D01*
X109262316Y-55805366D01*
X109349755Y-55805366D01*
X109349755Y-55892805D01*
X109349755Y-55980244D01*
X109262316Y-55980244D01*
X109174877Y-55980244D01*
G37*
G36*
X109524633Y-55805366D02*
G01*
X109437194Y-55805366D01*
X109349755Y-55805366D01*
X109349755Y-55717927D01*
X109349755Y-55630488D01*
X109437194Y-55630488D01*
X109524633Y-55630488D01*
X109524633Y-55717927D01*
X109524633Y-55805366D01*
G37*
G36*
X109524633Y-55630488D02*
G01*
X109524633Y-55543049D01*
X109524633Y-55455610D01*
X109612072Y-55455610D01*
X109699511Y-55455610D01*
X109699511Y-55543049D01*
X109699511Y-55630488D01*
X109612072Y-55630488D01*
X109524633Y-55630488D01*
G37*
G36*
X109349755Y-55630488D02*
G01*
X109262316Y-55630488D01*
X109174877Y-55630488D01*
X109174877Y-55543049D01*
X109174877Y-55455610D01*
X109262316Y-55455610D01*
X109349755Y-55455610D01*
X109349755Y-55543049D01*
X109349755Y-55630488D01*
G37*
G36*
X109699511Y-55455610D02*
G01*
X109699511Y-55368171D01*
X109699511Y-55280732D01*
X109786950Y-55280732D01*
X109874389Y-55280732D01*
X109874389Y-55368171D01*
X109874389Y-55455610D01*
X109786950Y-55455610D01*
X109699511Y-55455610D01*
G37*
G36*
X109174877Y-55455610D02*
G01*
X109087438Y-55455610D01*
X109000000Y-55455610D01*
X109000000Y-55368171D01*
X109000000Y-55280732D01*
X109087438Y-55280732D01*
X109174877Y-55280732D01*
X109174877Y-55368171D01*
X109174877Y-55455610D01*
G37*
G36*
X110312072Y-56330000D02*
G01*
X110224633Y-56330000D01*
X110137194Y-56330000D01*
X110049755Y-56330000D01*
X110049755Y-56242561D01*
X110049755Y-56155122D01*
X110137194Y-56155122D01*
X110137194Y-56067683D01*
X110137194Y-55980244D01*
X110137194Y-55892805D01*
X110137194Y-55805366D01*
X110137194Y-55717927D01*
X110137194Y-55630488D01*
X110137194Y-55543049D01*
X110137194Y-55455610D01*
X110049755Y-55455610D01*
X110049755Y-55368171D01*
X110049755Y-55280732D01*
X110137194Y-55280732D01*
X110224633Y-55280732D01*
X110312072Y-55280732D01*
X110399511Y-55280732D01*
X110399511Y-55368171D01*
X110399511Y-55455610D01*
X110312072Y-55455610D01*
X110312072Y-55543049D01*
X110312072Y-55630488D01*
X110312072Y-55717927D01*
X110312072Y-55805366D01*
X110312072Y-55892805D01*
X110312072Y-55980244D01*
X110312072Y-56067683D01*
X110312072Y-56155122D01*
X110399511Y-56155122D01*
X110399511Y-56242561D01*
X110399511Y-56330000D01*
X110312072Y-56330000D01*
G37*
G36*
X111186461Y-56330000D02*
G01*
X111099023Y-56330000D01*
X111099023Y-56242561D01*
X111099023Y-56155122D01*
X111099023Y-56067683D01*
X111099023Y-55980244D01*
X111099023Y-55892805D01*
X111099023Y-55805366D01*
X111011584Y-55805366D01*
X110924145Y-55805366D01*
X110836706Y-55805366D01*
X110749267Y-55805366D01*
X110661828Y-55805366D01*
X110661828Y-55892805D01*
X110661828Y-55980244D01*
X110661828Y-56067683D01*
X110661828Y-56155122D01*
X110661828Y-56242561D01*
X110661828Y-56330000D01*
X110574389Y-56330000D01*
X110486950Y-56330000D01*
X110486950Y-56242561D01*
X110486950Y-56155122D01*
X110486950Y-56067683D01*
X110486950Y-55980244D01*
X110486950Y-55892805D01*
X110486950Y-55805366D01*
X110486950Y-55717927D01*
X110486950Y-55630488D01*
X110486950Y-55543049D01*
X110486950Y-55455610D01*
X110574389Y-55455610D01*
X110661828Y-55455610D01*
X110661828Y-55543049D01*
X110661828Y-55630488D01*
X110749267Y-55630488D01*
X110836706Y-55630488D01*
X110924145Y-55630488D01*
X111011584Y-55630488D01*
X111099023Y-55630488D01*
X111099023Y-55543049D01*
X111099023Y-55455610D01*
X111186461Y-55455610D01*
X111273900Y-55455610D01*
X111273900Y-55543049D01*
X111273900Y-55630488D01*
X111273900Y-55717927D01*
X111273900Y-55805366D01*
X111273900Y-55892805D01*
X111273900Y-55980244D01*
X111273900Y-56067683D01*
X111273900Y-56155122D01*
X111273900Y-56242561D01*
X111273900Y-56330000D01*
X111186461Y-56330000D01*
G37*
G36*
X111099023Y-55455610D02*
G01*
X111011584Y-55455610D01*
X110924145Y-55455610D01*
X110836706Y-55455610D01*
X110749267Y-55455610D01*
X110661828Y-55455610D01*
X110661828Y-55368171D01*
X110661828Y-55280732D01*
X110749267Y-55280732D01*
X110836706Y-55280732D01*
X110924145Y-55280732D01*
X111011584Y-55280732D01*
X111099023Y-55280732D01*
X111099023Y-55368171D01*
X111099023Y-55455610D01*
G37*
G36*
X112148290Y-56330000D02*
G01*
X112060851Y-56330000D01*
X111973412Y-56330000D01*
X111885973Y-56330000D01*
X111798534Y-56330000D01*
X111711095Y-56330000D01*
X111623656Y-56330000D01*
X111536217Y-56330000D01*
X111536217Y-56242561D01*
X111536217Y-56155122D01*
X111623656Y-56155122D01*
X111711095Y-56155122D01*
X111798534Y-56155122D01*
X111885973Y-56155122D01*
X111973412Y-56155122D01*
X112060851Y-56155122D01*
X112148290Y-56155122D01*
X112235729Y-56155122D01*
X112235729Y-56242561D01*
X112235729Y-56330000D01*
X112148290Y-56330000D01*
G37*
G36*
X112235729Y-56155122D02*
G01*
X112235729Y-56067683D01*
X112235729Y-55980244D01*
X112235729Y-55892805D01*
X112235729Y-55805366D01*
X112235729Y-55717927D01*
X112235729Y-55630488D01*
X112235729Y-55543049D01*
X112235729Y-55455610D01*
X112323168Y-55455610D01*
X112410607Y-55455610D01*
X112410607Y-55543049D01*
X112410607Y-55630488D01*
X112410607Y-55717927D01*
X112410607Y-55805366D01*
X112410607Y-55892805D01*
X112410607Y-55980244D01*
X112410607Y-56067683D01*
X112410607Y-56155122D01*
X112323168Y-56155122D01*
X112235729Y-56155122D01*
G37*
G36*
X111536217Y-56155122D02*
G01*
X111448778Y-56155122D01*
X111361339Y-56155122D01*
X111361339Y-56067683D01*
X111361339Y-55980244D01*
X111361339Y-55892805D01*
X111361339Y-55805366D01*
X111361339Y-55717927D01*
X111361339Y-55630488D01*
X111361339Y-55543049D01*
X111361339Y-55455610D01*
X111448778Y-55455610D01*
X111536217Y-55455610D01*
X111536217Y-55543049D01*
X111536217Y-55630488D01*
X111536217Y-55717927D01*
X111536217Y-55805366D01*
X111536217Y-55892805D01*
X111536217Y-55980244D01*
X111536217Y-56067683D01*
X111536217Y-56155122D01*
G37*
G36*
X112235729Y-55455610D02*
G01*
X112148290Y-55455610D01*
X112060851Y-55455610D01*
X111973412Y-55455610D01*
X111885973Y-55455610D01*
X111798534Y-55455610D01*
X111711095Y-55455610D01*
X111623656Y-55455610D01*
X111536217Y-55455610D01*
X111536217Y-55368171D01*
X111536217Y-55280732D01*
X111623656Y-55280732D01*
X111711095Y-55280732D01*
X111798534Y-55280732D01*
X111885973Y-55280732D01*
X111973412Y-55280732D01*
X112060851Y-55280732D01*
X112148290Y-55280732D01*
X112235729Y-55280732D01*
X112235729Y-55368171D01*
X112235729Y-55455610D01*
G37*
G36*
X113722191Y-56330000D02*
G01*
X113634752Y-56330000D01*
X113634752Y-56242561D01*
X113634752Y-56155122D01*
X113634752Y-56067683D01*
X113634752Y-55980244D01*
X113634752Y-55892805D01*
X113547313Y-55892805D01*
X113459874Y-55892805D01*
X113372435Y-55892805D01*
X113284996Y-55892805D01*
X113197557Y-55892805D01*
X113110118Y-55892805D01*
X113110118Y-55980244D01*
X113110118Y-56067683D01*
X113110118Y-56155122D01*
X113110118Y-56242561D01*
X113110118Y-56330000D01*
X113022679Y-56330000D01*
X112935240Y-56330000D01*
X112935240Y-56242561D01*
X112935240Y-56155122D01*
X112935240Y-56067683D01*
X112935240Y-55980244D01*
X112935240Y-55892805D01*
X112935240Y-55805366D01*
X112935240Y-55717927D01*
X112935240Y-55630488D01*
X112935240Y-55543049D01*
X112935240Y-55455610D01*
X112935240Y-55368171D01*
X112935240Y-55280732D01*
X113022679Y-55280732D01*
X113110118Y-55280732D01*
X113110118Y-55368171D01*
X113110118Y-55455610D01*
X113110118Y-55543049D01*
X113110118Y-55630488D01*
X113110118Y-55717927D01*
X113197557Y-55717927D01*
X113284996Y-55717927D01*
X113372435Y-55717927D01*
X113459874Y-55717927D01*
X113547313Y-55717927D01*
X113634752Y-55717927D01*
X113634752Y-55630488D01*
X113634752Y-55543049D01*
X113634752Y-55455610D01*
X113634752Y-55368171D01*
X113634752Y-55280732D01*
X113722191Y-55280732D01*
X113809630Y-55280732D01*
X113809630Y-55368171D01*
X113809630Y-55455610D01*
X113809630Y-55543049D01*
X113809630Y-55630488D01*
X113809630Y-55717927D01*
X113809630Y-55805366D01*
X113809630Y-55892805D01*
X113809630Y-55980244D01*
X113809630Y-56067683D01*
X113809630Y-56155122D01*
X113809630Y-56242561D01*
X113809630Y-56330000D01*
X113722191Y-56330000D01*
G37*
G36*
X114597069Y-56155122D02*
G01*
X114597069Y-56242561D01*
X114597069Y-56330000D01*
X114509630Y-56330000D01*
X114422191Y-56330000D01*
X114334752Y-56330000D01*
X114247313Y-56330000D01*
X114159874Y-56330000D01*
X114072435Y-56330000D01*
X114072435Y-56242561D01*
X114072435Y-56155122D01*
X114159874Y-56155122D01*
X114247313Y-56155122D01*
X114334752Y-56155122D01*
X114422191Y-56155122D01*
X114422191Y-56067683D01*
X114509630Y-56067683D01*
X114597069Y-56067683D01*
X114597069Y-56155122D01*
G37*
G36*
X114597069Y-55630488D02*
G01*
X114597069Y-55717927D01*
X114597069Y-55805366D01*
X114597069Y-55892805D01*
X114509630Y-55892805D01*
X114422191Y-55892805D01*
X114422191Y-55980244D01*
X114334752Y-55980244D01*
X114247313Y-55980244D01*
X114159874Y-55980244D01*
X114072435Y-55980244D01*
X114072435Y-56067683D01*
X114072435Y-56155122D01*
X113984996Y-56155122D01*
X113897557Y-56155122D01*
X113897557Y-56067683D01*
X113897557Y-55980244D01*
X113897557Y-55892805D01*
X113897557Y-55805366D01*
X114072435Y-55805366D01*
X114159874Y-55805366D01*
X114247313Y-55805366D01*
X114334752Y-55805366D01*
X114422191Y-55805366D01*
X114422191Y-55717927D01*
X114334752Y-55717927D01*
X114247313Y-55717927D01*
X114159874Y-55717927D01*
X114072435Y-55717927D01*
X114072435Y-55805366D01*
X113897557Y-55805366D01*
X113897557Y-55717927D01*
X113984996Y-55717927D01*
X114072435Y-55717927D01*
X114072435Y-55630488D01*
X114072435Y-55543049D01*
X114159874Y-55543049D01*
X114247313Y-55543049D01*
X114334752Y-55543049D01*
X114422191Y-55543049D01*
X114509630Y-55543049D01*
X114597069Y-55543049D01*
X114597069Y-55630488D01*
G37*
G36*
X115209630Y-55805366D02*
G01*
X115209630Y-55717927D01*
X115122191Y-55717927D01*
X115034752Y-55717927D01*
X114947313Y-55717927D01*
X114947313Y-55805366D01*
X114859874Y-55805366D01*
X114859874Y-55892805D01*
X114859874Y-55980244D01*
X114859874Y-56067683D01*
X114859874Y-56155122D01*
X114859874Y-56242561D01*
X114859874Y-56330000D01*
X114772435Y-56330000D01*
X114684996Y-56330000D01*
X114684996Y-56242561D01*
X114684996Y-56155122D01*
X114684996Y-56067683D01*
X114684996Y-55980244D01*
X114684996Y-55892805D01*
X114684996Y-55805366D01*
X114684996Y-55717927D01*
X114684996Y-55630488D01*
X114684996Y-55543049D01*
X114772435Y-55543049D01*
X114859874Y-55543049D01*
X114859874Y-55630488D01*
X114947313Y-55630488D01*
X114947313Y-55543049D01*
X115034752Y-55543049D01*
X115122191Y-55543049D01*
X115209630Y-55543049D01*
X115209630Y-55630488D01*
X115297069Y-55630488D01*
X115297069Y-55717927D01*
X115297069Y-55805366D01*
X115209630Y-55805366D01*
G37*
G36*
X116084019Y-56155122D02*
G01*
X116084019Y-56242561D01*
X116084019Y-56330000D01*
X115996580Y-56330000D01*
X115909141Y-56330000D01*
X115821702Y-56330000D01*
X115734263Y-56330000D01*
X115646824Y-56330000D01*
X115559385Y-56330000D01*
X115559385Y-56242561D01*
X115559385Y-56155122D01*
X115646824Y-56155122D01*
X115734263Y-56155122D01*
X115821702Y-56155122D01*
X115909141Y-56155122D01*
X115909141Y-56067683D01*
X115996580Y-56067683D01*
X116084019Y-56067683D01*
X116084019Y-56155122D01*
G37*
G36*
X116084019Y-55630488D02*
G01*
X116084019Y-55717927D01*
X116084019Y-55805366D01*
X116084019Y-55892805D01*
X115996580Y-55892805D01*
X115909141Y-55892805D01*
X115909141Y-55980244D01*
X115821702Y-55980244D01*
X115734263Y-55980244D01*
X115646824Y-55980244D01*
X115559385Y-55980244D01*
X115559385Y-56067683D01*
X115559385Y-56155122D01*
X115471946Y-56155122D01*
X115384508Y-56155122D01*
X115384508Y-56067683D01*
X115384508Y-55980244D01*
X115384508Y-55892805D01*
X115384508Y-55805366D01*
X115559385Y-55805366D01*
X115646824Y-55805366D01*
X115734263Y-55805366D01*
X115821702Y-55805366D01*
X115909141Y-55805366D01*
X115909141Y-55717927D01*
X115821702Y-55717927D01*
X115734263Y-55717927D01*
X115646824Y-55717927D01*
X115559385Y-55717927D01*
X115559385Y-55805366D01*
X115384508Y-55805366D01*
X115384508Y-55717927D01*
X115471946Y-55717927D01*
X115559385Y-55717927D01*
X115559385Y-55630488D01*
X115559385Y-55543049D01*
X115646824Y-55543049D01*
X115734263Y-55543049D01*
X115821702Y-55543049D01*
X115909141Y-55543049D01*
X115996580Y-55543049D01*
X116084019Y-55543049D01*
X116084019Y-55630488D01*
G37*
G36*
X97999512Y-51415000D02*
G01*
X97912073Y-51415000D01*
X97912073Y-51327561D01*
X97912073Y-51240122D01*
X97999512Y-51240122D01*
X98086951Y-51240122D01*
X98086951Y-51327561D01*
X98086951Y-51415000D01*
X97999512Y-51415000D01*
G37*
G36*
X97125122Y-51415000D02*
G01*
X97037684Y-51415000D01*
X97037684Y-51327561D01*
X97037684Y-51240122D01*
X97037684Y-51152683D01*
X97037684Y-51065244D01*
X97037684Y-50977805D01*
X97037684Y-50890366D01*
X97037684Y-50802927D01*
X97037684Y-50715488D01*
X97037684Y-50628049D01*
X97037684Y-50540610D01*
X97037684Y-50453171D01*
X97037684Y-50365732D01*
X97125122Y-50365732D01*
X97212561Y-50365732D01*
X97300000Y-50365732D01*
X97387439Y-50365732D01*
X97474878Y-50365732D01*
X97562317Y-50365732D01*
X97649756Y-50365732D01*
X97737195Y-50365732D01*
X97824634Y-50365732D01*
X97824634Y-50453171D01*
X97824634Y-50540610D01*
X97912073Y-50540610D01*
X97999512Y-50540610D01*
X97999512Y-50628049D01*
X97999512Y-50715488D01*
X97912073Y-50715488D01*
X97824634Y-50715488D01*
X97824634Y-50628049D01*
X97824634Y-50540610D01*
X97737195Y-50540610D01*
X97649756Y-50540610D01*
X97562317Y-50540610D01*
X97474878Y-50540610D01*
X97387439Y-50540610D01*
X97300000Y-50540610D01*
X97212561Y-50540610D01*
X97212561Y-50628049D01*
X97212561Y-50715488D01*
X97300000Y-50715488D01*
X97387439Y-50715488D01*
X97474878Y-50715488D01*
X97562317Y-50715488D01*
X97649756Y-50715488D01*
X97737195Y-50715488D01*
X97824634Y-50715488D01*
X97824634Y-50802927D01*
X97824634Y-50890366D01*
X97737195Y-50890366D01*
X97737195Y-50977805D01*
X97737195Y-51065244D01*
X97824634Y-51065244D01*
X97912073Y-51065244D01*
X97912073Y-51152683D01*
X97912073Y-51240122D01*
X97824634Y-51240122D01*
X97737195Y-51240122D01*
X97737195Y-51152683D01*
X97737195Y-51065244D01*
X97649756Y-51065244D01*
X97562317Y-51065244D01*
X97562317Y-50977805D01*
X97562317Y-50890366D01*
X97474878Y-50890366D01*
X97387439Y-50890366D01*
X97300000Y-50890366D01*
X97212561Y-50890366D01*
X97212561Y-50977805D01*
X97212561Y-51065244D01*
X97212561Y-51152683D01*
X97212561Y-51240122D01*
X97212561Y-51327561D01*
X97212561Y-51415000D01*
X97125122Y-51415000D01*
G37*
G36*
X98786951Y-51415000D02*
G01*
X98699512Y-51415000D01*
X98612073Y-51415000D01*
X98524634Y-51415000D01*
X98437195Y-51415000D01*
X98349756Y-51415000D01*
X98262317Y-51415000D01*
X98174878Y-51415000D01*
X98174878Y-51327561D01*
X98174878Y-51240122D01*
X98174878Y-51152683D01*
X98174878Y-51065244D01*
X98262317Y-51065244D01*
X98349756Y-51065244D01*
X98349756Y-51152683D01*
X98349756Y-51240122D01*
X98437195Y-51240122D01*
X98524634Y-51240122D01*
X98612073Y-51240122D01*
X98699512Y-51240122D01*
X98786951Y-51240122D01*
X98874390Y-51240122D01*
X98874390Y-51327561D01*
X98874390Y-51415000D01*
X98786951Y-51415000D01*
G37*
G36*
X98349756Y-51065244D02*
G01*
X98349756Y-50977805D01*
X98349756Y-50890366D01*
X98437195Y-50890366D01*
X98524634Y-50890366D01*
X98524634Y-50977805D01*
X98524634Y-51065244D01*
X98437195Y-51065244D01*
X98349756Y-51065244D01*
G37*
G36*
X98524634Y-50890366D02*
G01*
X98524634Y-50802927D01*
X98524634Y-50715488D01*
X98612073Y-50715488D01*
X98699512Y-50715488D01*
X98699512Y-50802927D01*
X98699512Y-50890366D01*
X98612073Y-50890366D01*
X98524634Y-50890366D01*
G37*
G36*
X98699512Y-50715488D02*
G01*
X98699512Y-50628049D01*
X98699512Y-50540610D01*
X98786951Y-50540610D01*
X98874390Y-50540610D01*
X98874390Y-50628049D01*
X98874390Y-50715488D01*
X98786951Y-50715488D01*
X98699512Y-50715488D01*
G37*
G36*
X98262317Y-50715488D02*
G01*
X98174878Y-50715488D01*
X98174878Y-50628049D01*
X98174878Y-50540610D01*
X98262317Y-50540610D01*
X98349756Y-50540610D01*
X98349756Y-50628049D01*
X98349756Y-50715488D01*
X98262317Y-50715488D01*
G37*
G36*
X98699512Y-50540610D02*
G01*
X98612073Y-50540610D01*
X98524634Y-50540610D01*
X98437195Y-50540610D01*
X98349756Y-50540610D01*
X98349756Y-50453171D01*
X98349756Y-50365732D01*
X98437195Y-50365732D01*
X98524634Y-50365732D01*
X98612073Y-50365732D01*
X98699512Y-50365732D01*
X98699512Y-50453171D01*
X98699512Y-50540610D01*
G37*
G36*
X98087439Y-46870000D02*
G01*
X98000000Y-46870000D01*
X98000000Y-46782561D01*
X98000000Y-46695122D01*
X98087439Y-46695122D01*
X98174878Y-46695122D01*
X98174878Y-46782561D01*
X98174878Y-46870000D01*
X98087439Y-46870000D01*
G37*
G36*
X97213049Y-46870000D02*
G01*
X97125611Y-46870000D01*
X97125611Y-46782561D01*
X97125611Y-46695122D01*
X97125611Y-46607683D01*
X97125611Y-46520244D01*
X97125611Y-46432805D01*
X97125611Y-46345366D01*
X97125611Y-46257927D01*
X97125611Y-46170488D01*
X97125611Y-46083049D01*
X97125611Y-45995610D01*
X97125611Y-45908171D01*
X97125611Y-45820732D01*
X97213049Y-45820732D01*
X97300488Y-45820732D01*
X97387927Y-45820732D01*
X97475366Y-45820732D01*
X97562805Y-45820732D01*
X97650244Y-45820732D01*
X97737683Y-45820732D01*
X97825122Y-45820732D01*
X97912561Y-45820732D01*
X97912561Y-45908171D01*
X97912561Y-45995610D01*
X98000000Y-45995610D01*
X98087439Y-45995610D01*
X98087439Y-46083049D01*
X98087439Y-46170488D01*
X98000000Y-46170488D01*
X97912561Y-46170488D01*
X97912561Y-46083049D01*
X97912561Y-45995610D01*
X97825122Y-45995610D01*
X97737683Y-45995610D01*
X97650244Y-45995610D01*
X97562805Y-45995610D01*
X97475366Y-45995610D01*
X97387927Y-45995610D01*
X97300488Y-45995610D01*
X97300488Y-46083049D01*
X97300488Y-46170488D01*
X97387927Y-46170488D01*
X97475366Y-46170488D01*
X97562805Y-46170488D01*
X97650244Y-46170488D01*
X97737683Y-46170488D01*
X97825122Y-46170488D01*
X97912561Y-46170488D01*
X97912561Y-46257927D01*
X97912561Y-46345366D01*
X97825122Y-46345366D01*
X97825122Y-46432805D01*
X97825122Y-46520244D01*
X97912561Y-46520244D01*
X98000000Y-46520244D01*
X98000000Y-46607683D01*
X98000000Y-46695122D01*
X97912561Y-46695122D01*
X97825122Y-46695122D01*
X97825122Y-46607683D01*
X97825122Y-46520244D01*
X97737683Y-46520244D01*
X97650244Y-46520244D01*
X97650244Y-46432805D01*
X97650244Y-46345366D01*
X97562805Y-46345366D01*
X97475366Y-46345366D01*
X97387927Y-46345366D01*
X97300488Y-46345366D01*
X97300488Y-46432805D01*
X97300488Y-46520244D01*
X97300488Y-46607683D01*
X97300488Y-46695122D01*
X97300488Y-46782561D01*
X97300488Y-46870000D01*
X97213049Y-46870000D01*
G37*
G36*
X98700000Y-46870000D02*
G01*
X98612561Y-46870000D01*
X98525122Y-46870000D01*
X98437683Y-46870000D01*
X98350244Y-46870000D01*
X98262805Y-46870000D01*
X98262805Y-46782561D01*
X98262805Y-46695122D01*
X98350244Y-46695122D01*
X98437683Y-46695122D01*
X98437683Y-46607683D01*
X98437683Y-46520244D01*
X98437683Y-46432805D01*
X98437683Y-46345366D01*
X98437683Y-46257927D01*
X98437683Y-46170488D01*
X98350244Y-46170488D01*
X98262805Y-46170488D01*
X98262805Y-46083049D01*
X98262805Y-45995610D01*
X98350244Y-45995610D01*
X98437683Y-45995610D01*
X98437683Y-45908171D01*
X98437683Y-45820732D01*
X98525122Y-45820732D01*
X98612561Y-45820732D01*
X98612561Y-45908171D01*
X98612561Y-45995610D01*
X98612561Y-46083049D01*
X98612561Y-46170488D01*
X98612561Y-46257927D01*
X98612561Y-46345366D01*
X98612561Y-46432805D01*
X98612561Y-46520244D01*
X98612561Y-46607683D01*
X98612561Y-46695122D01*
X98700000Y-46695122D01*
X98787439Y-46695122D01*
X98787439Y-46782561D01*
X98787439Y-46870000D01*
X98700000Y-46870000D01*
G37*
G36*
X99368597Y-57415000D02*
G01*
X99281158Y-57415000D01*
X99193719Y-57415000D01*
X99106280Y-57415000D01*
X99018841Y-57415000D01*
X98931402Y-57415000D01*
X98843963Y-57415000D01*
X98756524Y-57415000D01*
X98756524Y-57327561D01*
X98756524Y-57240122D01*
X98843963Y-57240122D01*
X98931402Y-57240122D01*
X99018841Y-57240122D01*
X99106280Y-57240122D01*
X99193719Y-57240122D01*
X99281158Y-57240122D01*
X99368597Y-57240122D01*
X99368597Y-57152683D01*
X99368597Y-57065244D01*
X99456036Y-57065244D01*
X99543475Y-57065244D01*
X99543475Y-57152683D01*
X99543475Y-57240122D01*
X99456036Y-57240122D01*
X99456036Y-57327561D01*
X99456036Y-57415000D01*
X99368597Y-57415000D01*
G37*
G36*
X98756524Y-57240122D02*
G01*
X98669085Y-57240122D01*
X98581647Y-57240122D01*
X98581647Y-57152683D01*
X98581647Y-57065244D01*
X98581647Y-56977805D01*
X98581647Y-56890366D01*
X98581647Y-56802927D01*
X98581647Y-56715488D01*
X98581647Y-56628049D01*
X98581647Y-56540610D01*
X98669085Y-56540610D01*
X98756524Y-56540610D01*
X98756524Y-56628049D01*
X98756524Y-56715488D01*
X98756524Y-56802927D01*
X98756524Y-56890366D01*
X98756524Y-56977805D01*
X98756524Y-57065244D01*
X98756524Y-57152683D01*
X98756524Y-57240122D01*
G37*
G36*
X99456036Y-56715488D02*
G01*
X99368597Y-56715488D01*
X99368597Y-56628049D01*
X99368597Y-56540610D01*
X99281158Y-56540610D01*
X99193719Y-56540610D01*
X99106280Y-56540610D01*
X99018841Y-56540610D01*
X98931402Y-56540610D01*
X98843963Y-56540610D01*
X98756524Y-56540610D01*
X98756524Y-56453171D01*
X98756524Y-56365732D01*
X98843963Y-56365732D01*
X98931402Y-56365732D01*
X99018841Y-56365732D01*
X99106280Y-56365732D01*
X99193719Y-56365732D01*
X99281158Y-56365732D01*
X99368597Y-56365732D01*
X99456036Y-56365732D01*
X99456036Y-56453171D01*
X99456036Y-56540610D01*
X99543475Y-56540610D01*
X99543475Y-56628049D01*
X99543475Y-56715488D01*
X99456036Y-56715488D01*
G37*
G36*
X100068108Y-57415000D02*
G01*
X99980670Y-57415000D01*
X99893231Y-57415000D01*
X99805792Y-57415000D01*
X99805792Y-57327561D01*
X99805792Y-57240122D01*
X99893231Y-57240122D01*
X99980670Y-57240122D01*
X100068108Y-57240122D01*
X100155547Y-57240122D01*
X100155547Y-57327561D01*
X100155547Y-57415000D01*
X100068108Y-57415000D01*
G37*
G36*
X100155547Y-57240122D02*
G01*
X100155547Y-57152683D01*
X100155547Y-57065244D01*
X100155547Y-56977805D01*
X100242986Y-56977805D01*
X100330425Y-56977805D01*
X100330425Y-57065244D01*
X100330425Y-57152683D01*
X100330425Y-57240122D01*
X100242986Y-57240122D01*
X100155547Y-57240122D01*
G37*
G36*
X99805792Y-57240122D02*
G01*
X99718353Y-57240122D01*
X99630914Y-57240122D01*
X99630914Y-57152683D01*
X99630914Y-57065244D01*
X99718353Y-57065244D01*
X99805792Y-57065244D01*
X99805792Y-57152683D01*
X99805792Y-57240122D01*
G37*
G36*
X100155547Y-56977805D02*
G01*
X100068108Y-56977805D01*
X99980670Y-56977805D01*
X99980670Y-56890366D01*
X99980670Y-56802927D01*
X100068108Y-56802927D01*
X100155547Y-56802927D01*
X100155547Y-56890366D01*
X100155547Y-56977805D01*
G37*
G36*
X100155547Y-56802927D02*
G01*
X100155547Y-56715488D01*
X100155547Y-56628049D01*
X100155547Y-56540610D01*
X100242986Y-56540610D01*
X100330425Y-56540610D01*
X100330425Y-56628049D01*
X100330425Y-56715488D01*
X100330425Y-56802927D01*
X100242986Y-56802927D01*
X100155547Y-56802927D01*
G37*
G36*
X99718353Y-56715488D02*
G01*
X99630914Y-56715488D01*
X99630914Y-56628049D01*
X99630914Y-56540610D01*
X99718353Y-56540610D01*
X99805792Y-56540610D01*
X99805792Y-56628049D01*
X99805792Y-56715488D01*
X99718353Y-56715488D01*
G37*
G36*
X100155547Y-56540610D02*
G01*
X100068108Y-56540610D01*
X99980670Y-56540610D01*
X99893231Y-56540610D01*
X99805792Y-56540610D01*
X99805792Y-56453171D01*
X99805792Y-56365732D01*
X99893231Y-56365732D01*
X99980670Y-56365732D01*
X100068108Y-56365732D01*
X100155547Y-56365732D01*
X100155547Y-56453171D01*
X100155547Y-56540610D01*
G37*
G36*
X99340978Y-55765000D02*
G01*
X99253539Y-55765000D01*
X99166100Y-55765000D01*
X99078661Y-55765000D01*
X98991222Y-55765000D01*
X98903783Y-55765000D01*
X98816344Y-55765000D01*
X98728905Y-55765000D01*
X98728905Y-55677561D01*
X98728905Y-55590122D01*
X98816344Y-55590122D01*
X98903783Y-55590122D01*
X98991222Y-55590122D01*
X99078661Y-55590122D01*
X99166100Y-55590122D01*
X99253539Y-55590122D01*
X99340978Y-55590122D01*
X99340978Y-55502683D01*
X99340978Y-55415244D01*
X99428417Y-55415244D01*
X99515856Y-55415244D01*
X99515856Y-55502683D01*
X99515856Y-55590122D01*
X99428417Y-55590122D01*
X99428417Y-55677561D01*
X99428417Y-55765000D01*
X99340978Y-55765000D01*
G37*
G36*
X98728905Y-55590122D02*
G01*
X98641466Y-55590122D01*
X98554028Y-55590122D01*
X98554028Y-55502683D01*
X98554028Y-55415244D01*
X98554028Y-55327805D01*
X98554028Y-55240366D01*
X98554028Y-55152927D01*
X98554028Y-55065488D01*
X98554028Y-54978049D01*
X98554028Y-54890610D01*
X98641466Y-54890610D01*
X98728905Y-54890610D01*
X98728905Y-54978049D01*
X98728905Y-55065488D01*
X98728905Y-55152927D01*
X98728905Y-55240366D01*
X98728905Y-55327805D01*
X98728905Y-55415244D01*
X98728905Y-55502683D01*
X98728905Y-55590122D01*
G37*
G36*
X99428417Y-55065488D02*
G01*
X99340978Y-55065488D01*
X99340978Y-54978049D01*
X99340978Y-54890610D01*
X99253539Y-54890610D01*
X99166100Y-54890610D01*
X99078661Y-54890610D01*
X98991222Y-54890610D01*
X98903783Y-54890610D01*
X98816344Y-54890610D01*
X98728905Y-54890610D01*
X98728905Y-54803171D01*
X98728905Y-54715732D01*
X98816344Y-54715732D01*
X98903783Y-54715732D01*
X98991222Y-54715732D01*
X99078661Y-54715732D01*
X99166100Y-54715732D01*
X99253539Y-54715732D01*
X99340978Y-54715732D01*
X99428417Y-54715732D01*
X99428417Y-54803171D01*
X99428417Y-54890610D01*
X99515856Y-54890610D01*
X99515856Y-54978049D01*
X99515856Y-55065488D01*
X99428417Y-55065488D01*
G37*
G36*
X100215367Y-55765000D02*
G01*
X100127928Y-55765000D01*
X100040489Y-55765000D01*
X99953051Y-55765000D01*
X99865612Y-55765000D01*
X99778173Y-55765000D01*
X99690734Y-55765000D01*
X99603295Y-55765000D01*
X99603295Y-55677561D01*
X99603295Y-55590122D01*
X99603295Y-55502683D01*
X99603295Y-55415244D01*
X99690734Y-55415244D01*
X99778173Y-55415244D01*
X99778173Y-55502683D01*
X99778173Y-55590122D01*
X99865612Y-55590122D01*
X99953051Y-55590122D01*
X100040489Y-55590122D01*
X100127928Y-55590122D01*
X100215367Y-55590122D01*
X100302806Y-55590122D01*
X100302806Y-55677561D01*
X100302806Y-55765000D01*
X100215367Y-55765000D01*
G37*
G36*
X99778173Y-55415244D02*
G01*
X99778173Y-55327805D01*
X99778173Y-55240366D01*
X99865612Y-55240366D01*
X99953051Y-55240366D01*
X99953051Y-55327805D01*
X99953051Y-55415244D01*
X99865612Y-55415244D01*
X99778173Y-55415244D01*
G37*
G36*
X99953051Y-55240366D02*
G01*
X99953051Y-55152927D01*
X99953051Y-55065488D01*
X100040489Y-55065488D01*
X100127928Y-55065488D01*
X100127928Y-55152927D01*
X100127928Y-55240366D01*
X100040489Y-55240366D01*
X99953051Y-55240366D01*
G37*
G36*
X100127928Y-55065488D02*
G01*
X100127928Y-54978049D01*
X100127928Y-54890610D01*
X100215367Y-54890610D01*
X100302806Y-54890610D01*
X100302806Y-54978049D01*
X100302806Y-55065488D01*
X100215367Y-55065488D01*
X100127928Y-55065488D01*
G37*
G36*
X99690734Y-55065488D02*
G01*
X99603295Y-55065488D01*
X99603295Y-54978049D01*
X99603295Y-54890610D01*
X99690734Y-54890610D01*
X99778173Y-54890610D01*
X99778173Y-54978049D01*
X99778173Y-55065488D01*
X99690734Y-55065488D01*
G37*
G36*
X100127928Y-54890610D02*
G01*
X100040489Y-54890610D01*
X99953051Y-54890610D01*
X99865612Y-54890610D01*
X99778173Y-54890610D01*
X99778173Y-54803171D01*
X99778173Y-54715732D01*
X99865612Y-54715732D01*
X99953051Y-54715732D01*
X100040489Y-54715732D01*
X100127928Y-54715732D01*
X100127928Y-54803171D01*
X100127928Y-54890610D01*
G37*
G36*
X99456525Y-53915000D02*
G01*
X99369086Y-53915000D01*
X99281647Y-53915000D01*
X99194208Y-53915000D01*
X99106769Y-53915000D01*
X99019330Y-53915000D01*
X98931891Y-53915000D01*
X98844452Y-53915000D01*
X98844452Y-53827561D01*
X98844452Y-53740122D01*
X98931891Y-53740122D01*
X99019330Y-53740122D01*
X99106769Y-53740122D01*
X99194208Y-53740122D01*
X99281647Y-53740122D01*
X99369086Y-53740122D01*
X99456525Y-53740122D01*
X99456525Y-53652683D01*
X99456525Y-53565244D01*
X99543964Y-53565244D01*
X99631403Y-53565244D01*
X99631403Y-53652683D01*
X99631403Y-53740122D01*
X99543964Y-53740122D01*
X99543964Y-53827561D01*
X99543964Y-53915000D01*
X99456525Y-53915000D01*
G37*
G36*
X98844452Y-53740122D02*
G01*
X98757013Y-53740122D01*
X98669575Y-53740122D01*
X98669575Y-53652683D01*
X98669575Y-53565244D01*
X98669575Y-53477805D01*
X98669575Y-53390366D01*
X98669575Y-53302927D01*
X98669575Y-53215488D01*
X98669575Y-53128049D01*
X98669575Y-53040610D01*
X98757013Y-53040610D01*
X98844452Y-53040610D01*
X98844452Y-53128049D01*
X98844452Y-53215488D01*
X98844452Y-53302927D01*
X98844452Y-53390366D01*
X98844452Y-53477805D01*
X98844452Y-53565244D01*
X98844452Y-53652683D01*
X98844452Y-53740122D01*
G37*
G36*
X99543964Y-53215488D02*
G01*
X99456525Y-53215488D01*
X99456525Y-53128049D01*
X99456525Y-53040610D01*
X99369086Y-53040610D01*
X99281647Y-53040610D01*
X99194208Y-53040610D01*
X99106769Y-53040610D01*
X99019330Y-53040610D01*
X98931891Y-53040610D01*
X98844452Y-53040610D01*
X98844452Y-52953171D01*
X98844452Y-52865732D01*
X98931891Y-52865732D01*
X99019330Y-52865732D01*
X99106769Y-52865732D01*
X99194208Y-52865732D01*
X99281647Y-52865732D01*
X99369086Y-52865732D01*
X99456525Y-52865732D01*
X99543964Y-52865732D01*
X99543964Y-52953171D01*
X99543964Y-53040610D01*
X99631403Y-53040610D01*
X99631403Y-53128049D01*
X99631403Y-53215488D01*
X99543964Y-53215488D01*
G37*
G36*
X100156036Y-53915000D02*
G01*
X100068598Y-53915000D01*
X99981159Y-53915000D01*
X99893720Y-53915000D01*
X99806281Y-53915000D01*
X99718842Y-53915000D01*
X99718842Y-53827561D01*
X99718842Y-53740122D01*
X99806281Y-53740122D01*
X99893720Y-53740122D01*
X99893720Y-53652683D01*
X99893720Y-53565244D01*
X99893720Y-53477805D01*
X99893720Y-53390366D01*
X99893720Y-53302927D01*
X99893720Y-53215488D01*
X99806281Y-53215488D01*
X99718842Y-53215488D01*
X99718842Y-53128049D01*
X99718842Y-53040610D01*
X99806281Y-53040610D01*
X99893720Y-53040610D01*
X99893720Y-52953171D01*
X99893720Y-52865732D01*
X99981159Y-52865732D01*
X100068598Y-52865732D01*
X100068598Y-52953171D01*
X100068598Y-53040610D01*
X100068598Y-53128049D01*
X100068598Y-53215488D01*
X100068598Y-53302927D01*
X100068598Y-53390366D01*
X100068598Y-53477805D01*
X100068598Y-53565244D01*
X100068598Y-53652683D01*
X100068598Y-53740122D01*
X100156036Y-53740122D01*
X100243475Y-53740122D01*
X100243475Y-53827561D01*
X100243475Y-53915000D01*
X100156036Y-53915000D01*
G37*
%TO.C,U2*%
D13*
X95701959Y-70437500D02*
G75*
G02*
X95560541Y-70437500I-70709J0D01*
G01*
X95560541Y-70437500D02*
G75*
G02*
X95701959Y-70437500I70709J0D01*
G01*
%TO.C,U3*%
D14*
X105637500Y-17456250D02*
G75*
G02*
X105437500Y-17456250I-100000J0D01*
G01*
X105437500Y-17456250D02*
G75*
G02*
X105637500Y-17456250I100000J0D01*
G01*
D15*
X96537500Y-17956250D02*
X122537500Y-17956250D01*
X122537500Y-17956250D02*
X122537500Y-43956250D01*
X122537500Y-43956250D02*
X116537500Y-43956250D01*
X116537500Y-43956250D02*
X116537500Y-41956250D01*
X116537500Y-41956250D02*
X102537500Y-41956250D01*
X102537500Y-41956250D02*
X102537500Y-43956250D01*
X102537500Y-43956250D02*
X96537500Y-43956250D01*
X96537500Y-43956250D02*
X96537500Y-17956250D01*
%TO.C,U1*%
X100942500Y-46825000D02*
X100942500Y-64625000D01*
X100942500Y-64625000D02*
X102472500Y-64625000D01*
X102472500Y-46825000D02*
X100942500Y-46825000D01*
X123366500Y-51225000D02*
X123366500Y-60220000D01*
D14*
X119433500Y-45496000D02*
G75*
G02*
X119233500Y-45496000I-100000J0D01*
G01*
X119233500Y-45496000D02*
G75*
G02*
X119433500Y-45496000I100000J0D01*
G01*
D15*
X120442500Y-46825000D02*
X121942500Y-46825000D01*
X121942500Y-46825000D02*
X121942500Y-51225000D01*
X121942500Y-51225000D02*
X123342500Y-51225000D01*
X123342500Y-60225000D02*
X121942500Y-60225000D01*
X121942500Y-60225000D02*
X121942500Y-64625000D01*
X121942500Y-64625000D02*
X120442500Y-64625000D01*
%TO.C,R2*%
D16*
X97832379Y-49235000D02*
X98167621Y-49235000D01*
X97832379Y-49995000D02*
X98167621Y-49995000D01*
%TO.C,R1*%
X97832379Y-47245000D02*
X98167621Y-47245000D01*
X97832379Y-48005000D02*
X98167621Y-48005000D01*
%TO.C,C3*%
X97412164Y-56640000D02*
X97627836Y-56640000D01*
X97412164Y-57360000D02*
X97627836Y-57360000D01*
%TO.C,C2*%
X97384545Y-54990000D02*
X97600217Y-54990000D01*
X97384545Y-55710000D02*
X97600217Y-55710000D01*
%TO.C,C1*%
X97412164Y-52850000D02*
X97627836Y-52850000D01*
X97412164Y-53570000D02*
X97627836Y-53570000D01*
%TD*%
M02*
