%TF.GenerationSoftware,KiCad,Pcbnew,10.0.2*%
%TF.CreationDate,2026-05-29T23:53:22-06:00*%
%TF.ProjectId,HERMES,4845524d-4553-42e6-9b69-6361645f7063,rev?*%
%TF.SameCoordinates,Original*%
%TF.FileFunction,Copper,L1,Top*%
%TF.FilePolarity,Positive*%
%FSLAX46Y46*%
G04 Gerber Fmt 4.6, Leading zero omitted, Abs format (unit mm)*
G04 Created by KiCad (PCBNEW 10.0.2) date 2026-05-29 23:53:22*
%MOMM*%
%LPD*%
G01*
G04 APERTURE LIST*
G04 Aperture macros list*
%AMRoundRect*
0 Rectangle with rounded corners*
0 $1 Rounding radius*
0 $2 $3 $4 $5 $6 $7 $8 $9 X,Y pos of 4 corners*
0 Add a 4 corners polygon primitive as box body*
4,1,4,$2,$3,$4,$5,$6,$7,$8,$9,$2,$3,0*
0 Add four circle primitives for the rounded corners*
1,1,$1+$1,$2,$3*
1,1,$1+$1,$4,$5*
1,1,$1+$1,$6,$7*
1,1,$1+$1,$8,$9*
0 Add four rect primitives between the rounded corners*
20,1,$1+$1,$2,$3,$4,$5,0*
20,1,$1+$1,$4,$5,$6,$7,0*
20,1,$1+$1,$6,$7,$8,$9,0*
20,1,$1+$1,$8,$9,$2,$3,0*%
G04 Aperture macros list end*
%TA.AperFunction,SMDPad,CuDef*%
%ADD10R,0.300000X0.600000*%
%TD*%
%TA.AperFunction,SMDPad,CuDef*%
%ADD11R,0.600000X0.300000*%
%TD*%
%TA.AperFunction,ComponentPad*%
%ADD12R,1.508000X1.508000*%
%TD*%
%TA.AperFunction,ComponentPad*%
%ADD13C,1.508000*%
%TD*%
%TA.AperFunction,ComponentPad*%
%ADD14C,3.000000*%
%TD*%
%TA.AperFunction,SMDPad,CuDef*%
%ADD15RoundRect,0.500000X-0.500000X0.875000X-0.500000X-0.875000X0.500000X-0.875000X0.500000X0.875000X0*%
%TD*%
%TA.AperFunction,SMDPad,CuDef*%
%ADD16RoundRect,0.160000X-0.197500X-0.160000X0.197500X-0.160000X0.197500X0.160000X-0.197500X0.160000X0*%
%TD*%
%TA.AperFunction,SMDPad,CuDef*%
%ADD17RoundRect,0.140000X-0.140000X-0.170000X0.140000X-0.170000X0.140000X0.170000X-0.140000X0.170000X0*%
%TD*%
%TA.AperFunction,ViaPad*%
%ADD18C,0.600000*%
%TD*%
%TA.AperFunction,Conductor*%
%ADD19C,0.200000*%
%TD*%
G04 APERTURE END LIST*
D10*
%TO.P,U2,16*%
%TO.N,N/C*%
X97131250Y-70237500D03*
%TO.P,U2,15*%
X97631250Y-70237500D03*
%TO.P,U2,14,VDD_14*%
%TO.N,+3.3V*%
X98131250Y-70237500D03*
D11*
%TO.P,U2,13*%
%TO.N,N/C*%
X98831250Y-70437500D03*
%TO.P,U2,12,GND@2_12*%
%TO.N,GND*%
X98831250Y-70937500D03*
%TO.P,U2,11,INT1_11*%
%TO.N,A0*%
X98831250Y-71437500D03*
%TO.P,U2,10,GND@1_10*%
%TO.N,GND*%
X98831250Y-71937500D03*
%TO.P,U2,9,INT2_9*%
%TO.N,A1*%
X98831250Y-72437500D03*
D10*
%TO.P,U2,8*%
%TO.N,N/C*%
X98131250Y-72637500D03*
%TO.P,U2,7,SA0_7*%
%TO.N,GND*%
X97631250Y-72637500D03*
%TO.P,U2,6,SDA_6*%
%TO.N,SDA*%
X97131250Y-72637500D03*
D11*
%TO.P,U2,5,GND_5*%
%TO.N,GND*%
X96431250Y-72437500D03*
%TO.P,U2,4,SCL_4*%
%TO.N,SCL*%
X96431250Y-71937500D03*
%TO.P,U2,3*%
%TO.N,N/C*%
X96431250Y-71437500D03*
%TO.P,U2,2,BYP_2*%
%TO.N,Net-(U2-BYP)*%
X96431250Y-70937500D03*
%TO.P,U2,1,VDDIO_1*%
%TO.N,+3.3V*%
X96431250Y-70437500D03*
%TD*%
D12*
%TO.P,U3,1,GND_1*%
%TO.N,GND*%
X105727500Y-19456250D03*
D13*
%TO.P,U3,2,VCC_IN_2*%
%TO.N,+3.3V*%
X108267500Y-19456250D03*
%TO.P,U3,3,SCL_3*%
%TO.N,SCL*%
X110807500Y-19456250D03*
%TO.P,U3,4,SDA_4*%
%TO.N,SDA*%
X113347500Y-19456250D03*
D14*
%TO.P,U3,S1*%
%TO.N,N/C*%
X98537500Y-19956250D03*
%TO.P,U3,S2*%
X120537500Y-19956250D03*
%TO.P,U3,S3*%
X120537500Y-41956250D03*
%TO.P,U3,S4*%
X98537500Y-41956250D03*
%TD*%
D15*
%TO.P,U1,7,P0//TX/D6_7*%
%TO.N,unconnected-(U1-P0{slash}{slash}TX{slash}D6-Pad7)*%
X103822500Y-47625000D03*
%TO.P,U1,6,P7/SCL/D5_6*%
%TO.N,Net-(U1-P7{slash}SCL{slash}D5)*%
X106362500Y-47625000D03*
%TO.P,U1,5,P6/SDA/D4_5*%
%TO.N,Net-(U1-P6{slash}SDA{slash}D4)*%
X108902500Y-47625000D03*
%TO.P,U1,4,P29/A3/D3_4*%
%TO.N,unconnected-(U1-P29{slash}A3{slash}D3-Pad4)*%
X111442500Y-47625000D03*
%TO.P,U1,3,P28/A2/D2_3*%
%TO.N,unconnected-(U1-P28{slash}A2{slash}D2-Pad3)*%
X113982500Y-47625000D03*
%TO.P,U1,2,P27/A1/D1_2*%
%TO.N,A1*%
X116522500Y-47625000D03*
%TO.P,U1,1,P26/A0/D0_1*%
%TO.N,A0*%
X119062500Y-47625000D03*
%TO.P,U1,8,D7/CSB/P1/RX_8*%
%TO.N,unconnected-(U1-D7{slash}CSB{slash}P1{slash}RX-Pad8)*%
X103822500Y-63825000D03*
%TO.P,U1,9,D8/SCK/P2_9*%
%TO.N,unconnected-(U1-D8{slash}SCK{slash}P2-Pad9)*%
X106362500Y-63825000D03*
%TO.P,U1,10,D9/MISO/P4_10*%
%TO.N,unconnected-(U1-D9{slash}MISO{slash}P4-Pad10)*%
X108902500Y-63825000D03*
%TO.P,U1,11,D10/MOSI/P3_11*%
%TO.N,unconnected-(U1-D10{slash}MOSI{slash}P3-Pad11)*%
X111442500Y-63825000D03*
%TO.P,U1,12,3V3_12*%
%TO.N,+3.3V*%
X113982500Y-63825000D03*
%TO.P,U1,13,GND_13*%
%TO.N,GND*%
X116522500Y-63825000D03*
%TO.P,U1,14,5V_14*%
%TO.N,unconnected-(U1-5V-Pad14)*%
X119062500Y-63825000D03*
%TD*%
D16*
%TO.P,R2,1*%
%TO.N,SCL*%
X97402500Y-49615000D03*
%TO.P,R2,2*%
%TO.N,Net-(U1-P7{slash}SCL{slash}D5)*%
X98597500Y-49615000D03*
%TD*%
%TO.P,R1,1*%
%TO.N,Net-(U1-P6{slash}SDA{slash}D4)*%
X97402500Y-47625000D03*
%TO.P,R1,2*%
%TO.N,SDA*%
X98597500Y-47625000D03*
%TD*%
D17*
%TO.P,C3,1*%
%TO.N,GND*%
X97040000Y-57000000D03*
%TO.P,C3,2*%
%TO.N,+3.3V*%
X98000000Y-57000000D03*
%TD*%
%TO.P,C2,1*%
%TO.N,GND*%
X97012381Y-55350000D03*
%TO.P,C2,2*%
%TO.N,+3.3V*%
X97972381Y-55350000D03*
%TD*%
%TO.P,C1,1*%
%TO.N,Net-(U2-BYP)*%
X97040000Y-53210000D03*
%TO.P,C1,2*%
%TO.N,GND*%
X98000000Y-53210000D03*
%TD*%
D18*
%TO.N,GND*%
X111250000Y-70500000D03*
%TO.N,SCL*%
X94500000Y-72000000D03*
%TO.N,GND*%
X95250000Y-72500000D03*
X106250000Y-51250000D03*
%TO.N,+3.3V*%
X113750000Y-60000000D03*
%TD*%
%TO.N,GND*%
D19*
X111250000Y-70500000D02*
X111250000Y-69056250D01*
X96431250Y-72437500D02*
X95312500Y-72437500D01*
X95312500Y-72437500D02*
X95250000Y-72500000D01*
X111250000Y-69056250D02*
X102393750Y-69056250D01*
X98831250Y-70937500D02*
X98312500Y-70937500D01*
X97781250Y-71937500D02*
X98831250Y-71937500D01*
X97631250Y-72637500D02*
X97631250Y-72087500D01*
X97631250Y-72087500D02*
X97781250Y-71937500D01*
X97631250Y-71618750D02*
X97631250Y-72637500D01*
X98312500Y-70937500D02*
X97631250Y-71618750D01*
%TO.N,SCL*%
X94500000Y-72000000D02*
X94500000Y-70000000D01*
X95000000Y-69500000D02*
X95000000Y-49750000D01*
X94500000Y-70000000D02*
X95000000Y-69500000D01*
X95000000Y-70000000D02*
X95000000Y-69500000D01*
%TO.N,SDA*%
X93900000Y-72248529D02*
X93900000Y-71751471D01*
X94100000Y-71551471D02*
X94100000Y-69834314D01*
X97012500Y-73500000D02*
X94500000Y-73500000D01*
X94500000Y-72848529D02*
X93900000Y-72248529D01*
X94100000Y-69834314D02*
X94500000Y-69434314D01*
X97131250Y-72637500D02*
X97131250Y-73381250D01*
X97131250Y-73381250D02*
X97012500Y-73500000D01*
X94500000Y-73500000D02*
X94500000Y-72848529D01*
X93900000Y-71751471D02*
X94100000Y-71551471D01*
X94500000Y-69434314D02*
X94500000Y-33000000D01*
%TO.N,A0*%
X98831250Y-71437500D02*
X123312500Y-71437500D01*
%TO.N,+3.3V*%
X97375000Y-66375000D02*
X96625000Y-66375000D01*
X97375000Y-66375000D02*
X97375000Y-66000000D01*
X96500000Y-70368750D02*
X96431250Y-70437500D01*
X96625000Y-66375000D02*
X96500000Y-66500000D01*
X98131250Y-66631250D02*
X98131250Y-70237500D01*
X97375000Y-66375000D02*
X97875000Y-66375000D01*
X97875000Y-66375000D02*
X98131250Y-66631250D01*
X96500000Y-66500000D02*
X96500000Y-70368750D01*
X111593750Y-67000000D02*
X98131250Y-67000000D01*
X98131250Y-67000000D02*
X98131250Y-66631250D01*
X113982500Y-64611250D02*
X111593750Y-67000000D01*
%TO.N,GND*%
X100512500Y-70937500D02*
X98831250Y-70937500D01*
X102393750Y-69056250D02*
X100512500Y-70937500D01*
X116522500Y-63825000D02*
X111291250Y-69056250D01*
X111291250Y-69056250D02*
X111250000Y-69056250D01*
%TO.N,+3.3V*%
X97375000Y-58625000D02*
X97375000Y-66375000D01*
%TO.N,SCL*%
X96359375Y-71887500D02*
X95500000Y-71887500D01*
%TO.N,Net-(U2-BYP)*%
X95500000Y-69500000D02*
X96000000Y-69000000D01*
X96431250Y-70931250D02*
X96387500Y-70887500D01*
X95831249Y-70887500D02*
X95500000Y-70556250D01*
%TO.N,SCL*%
X95000000Y-70621936D02*
X95000000Y-70000000D01*
%TO.N,Net-(U2-BYP)*%
X96431250Y-70937500D02*
X96431250Y-70931250D01*
%TO.N,SCL*%
X96409375Y-71937500D02*
X96359375Y-71887500D01*
X95500000Y-71887500D02*
X95500000Y-71121936D01*
%TO.N,Net-(U2-BYP)*%
X96000000Y-69000000D02*
X96000000Y-54500000D01*
X95500000Y-70556250D02*
X95500000Y-69500000D01*
%TO.N,SCL*%
X96431250Y-71937500D02*
X96409375Y-71937500D01*
X95500000Y-71121936D02*
X95000000Y-70621936D01*
%TO.N,Net-(U2-BYP)*%
X96387500Y-70887500D02*
X95831249Y-70887500D01*
%TO.N,A1*%
X98831250Y-72437500D02*
X122878186Y-72437500D01*
%TO.N,SDA*%
X110250000Y-26750000D02*
X113810000Y-23190000D01*
X100750000Y-26750000D02*
X110250000Y-26750000D01*
X94500000Y-33000000D02*
X100750000Y-26750000D01*
X113810000Y-23190000D02*
X113810000Y-19456250D01*
%TO.N,+3.3V*%
X97500000Y-58500000D02*
X97375000Y-58625000D01*
X98000000Y-58500000D02*
X97500000Y-58500000D01*
X98000000Y-57150000D02*
X98000000Y-58500000D01*
%TO.N,Net-(U1-P6{slash}SDA{slash}D4)*%
X97402500Y-45597500D02*
X98000000Y-45000000D01*
X97402500Y-47625000D02*
X97402500Y-45597500D01*
X109500000Y-47027500D02*
X108902500Y-47625000D01*
X108500000Y-45000000D02*
X109500000Y-46000000D01*
X109500000Y-46000000D02*
X109500000Y-47027500D01*
X98000000Y-45000000D02*
X108500000Y-45000000D01*
%TO.N,SDA*%
X94500000Y-48995000D02*
X97227500Y-48995000D01*
X97227500Y-48995000D02*
X98597500Y-47625000D01*
X94689314Y-48995000D02*
X95500000Y-48995000D01*
%TO.N,SCL*%
X95135000Y-49615000D02*
X97402500Y-49615000D01*
X95000000Y-49750000D02*
X95135000Y-49615000D01*
%TO.N,Net-(U2-BYP)*%
X97040000Y-53460000D02*
X97040000Y-53210000D01*
X96000000Y-54500000D02*
X97040000Y-53460000D01*
%TO.N,+3.3V*%
X113982500Y-63825000D02*
X113982500Y-64611250D01*
%TO.N,GND*%
X98000000Y-53210000D02*
X100290000Y-53210000D01*
%TO.N,Net-(U1-P7{slash}SCL{slash}D5)*%
X98597500Y-49615000D02*
X105885000Y-49615000D01*
%TO.N,GND*%
X106250000Y-51250000D02*
X106250000Y-52500000D01*
X106250000Y-52500000D02*
X114000000Y-52500000D01*
%TO.N,+3.3V*%
X113982500Y-60232500D02*
X113982500Y-63825000D01*
X113750000Y-60000000D02*
X113982500Y-60232500D01*
%TO.N,GND*%
X116522500Y-61772500D02*
X116522500Y-63825000D01*
X115000000Y-61250000D02*
X115250000Y-61500000D01*
X115000000Y-53500000D02*
X115000000Y-61250000D01*
X114000000Y-52500000D02*
X115000000Y-53500000D01*
X101000000Y-52500000D02*
X106250000Y-52500000D01*
X116250000Y-61500000D02*
X116522500Y-61772500D01*
X100290000Y-53210000D02*
X101000000Y-52500000D01*
X115250000Y-61500000D02*
X116250000Y-61500000D01*
X97040000Y-54170000D02*
X98000000Y-53210000D01*
X97040000Y-55180000D02*
X97040000Y-54170000D01*
X97040000Y-57150000D02*
X97040000Y-55180000D01*
%TO.N,+3.3V*%
X98000000Y-55180000D02*
X98000000Y-57150000D01*
%TO.N,A1*%
X116522500Y-45727500D02*
X116522500Y-47625000D01*
X123750000Y-45000000D02*
X117250000Y-45000000D01*
X125000000Y-46250000D02*
X123750000Y-45000000D01*
X125000000Y-70315686D02*
X125000000Y-46250000D01*
X122878186Y-72437500D02*
X125000000Y-70315686D01*
X117250000Y-45000000D02*
X116522500Y-45727500D01*
%TO.N,Net-(U1-P7{slash}SCL{slash}D5)*%
X106362500Y-49137500D02*
X106362500Y-47625000D01*
X105885000Y-49615000D02*
X106362500Y-49137500D01*
%TO.N,A0*%
X124375000Y-47625000D02*
X124375000Y-70375000D01*
X123312500Y-71437500D02*
X124375000Y-70375000D01*
X124375000Y-47625000D02*
X119062500Y-47625000D01*
%TD*%
M02*
